<?xml version="1.0" encoding="UTF-8"?>
<svg id="Layer_2" xmlns="http://www.w3.org/2000/svg" viewBox="0 0 37.9 36.62">
  <defs>
    <style>
      .cls-1 {
        fill: #0b0b0b;
      }

      .cls-2 {
        fill: #231f20;
      }

      .cls-3 {
        fill: #fff;
      }

      .cls-4 {
        fill: #030303;
      }

      .cls-5 {
        fill: #1a1b1b;
      }

      .cls-6 {
        fill: #1b1b1b;
      }
    </style>
  </defs>
  <g id="Layer_1-2" data-name="Layer_1">
    <g>
      <path class="cls-1" d="M36.23.23c1.31.53,1.69,1.46,1.68,2.88-.07,10.39-.05,20.78-.06,31.17,0,1.47-.84,2.31-2.35,2.31-10.98,0-21.95,0-32.93.02-1.03,0-1.69-.57-2.36-1.19-.19-2.7-.03-5.41-.09-8.11,0-2.34,0-4.68,0-7.02,0-.39.11-.79-.12-1.16v-.48c.27-1.72.07-3.45.12-5.17.03-1.3,0-2.6,0-3.9,0-2.64,0-5.27,0-7.91C.41.51.75.25,2.16.12c5.17,0,10.33,0,15.5,0,.43,0,.87.12,1.28-.12h.24c.41.23.86.12,1.29.12,4.82,0,9.64,0,14.46.01.43,0,.88-.1,1.29.1Z"/>
      <path class="cls-3" d="M22.24,35.81c1.1-2.61.99-4.07-.38-4.99-.06,1.26.34,2.63-.96,3.46-.62.39-1.28.69-2.02.65-1.97-.12-2.65-1.17-2.68-4.08-1.26.39-.87,1.49-1.12,2.33-.31,1.04.58,1.66.68,2.71-3.16,0-6.27-.03-9.37.02-1.39.02-2.61-.63-3.97-.76-.57-.05-.75-.75-.88-1.31-.18-.82-.2-1.71-.26-2.51-.25-3.32.26-6.66.07-9.99.55-.1.9.38,1.57.14.2-.1-1.1-.73,0-.73-.02-.09,0-.24-.05-.27-.71-.39-.11-1.39-.85-1.81-.31-.17.01-.6.19-.7.72-.39.04-1.38.79-1.72-.51-.27-.58-.62.05-.99-.73-.23-1.07.33-1.69.26.21-3.55-.25-7.1.23-10.65.14-1.06-.52-2.52.7-3.03,1.42-.59,3-.92,4.63-.87,2.91.09,5.82.03,8.9.03-.82,1.81-1.33,3.5.31,5.02-.03-1.25-.29-2.52.88-3.43.61-.48,1.37-.78,2.09-.77,1.94,0,2.7,1.2,2.76,4.1,1.25-.57,1.36-2.28.25-4.94,3.12,0,6.19.05,9.26-.02,1.43-.03,2.72.54,4.09.72.63.08.91.73.98,1.37.42,4.15-.03,8.3.1,12.45-.55.06-.86-.42-1.32-.3-.15.69.38,1.33.09,2.04-.1.25.21.39.38.55.42.41.48.92,0,1.22-.69.42.48,1.58-.99,1.59.98.21,1.1.48.27.87.61.27.98-.03,1.33-.18.35.23.23.54.23.79.04,2.67.1,5.34.1,8,0,1.22-.08,2.44-.18,3.66-.08.95-.63,1.35-1.6,1.6-4.14,1.06-8.32.12-12.61.5Z"/>
      <path class="cls-4" d="M20.98,6.73c.27.47.48.85.72,1.22.8,1.27.96,1.31,2.1.37.25-.2.4-.34.68-.06.27.26.07.42-.08.59-.42.48-.81.99-1.29,1.41-.85.74-1.73.89-2.67.06-.25-.22-.45-.74-.98-.41-.44.27-.48.67-.48,1.14.02,1.23-.01,2.47.02,3.7,0,.35-.27.96.29.99.6.03,1.33.43,1.85-.3.14-.2.07-.72.6-.48.55.25.22.56.1.87-.45,1.07-.84,2.2-2.41,1.9-.48-.09-.44.33-.44.65,0,2.31-.03,4.62.01,6.93.01.95.68,1.27,1.47.74.29-.19.45-.25.67.05.2.27.08.41-.13.58-.8.66-1.6,1.32-2.37,2.01-.29.26-.45.18-.67-.05-.27-.3-.59-.55-.84-.85-.45-.55-.86-.77-1.4-.09-.18.22-.44.52-.77.11-.33-.4.02-.62.26-.75,1.46-.76,1.49-2.05,1.43-3.46-.08-1.67,0-3.35-.03-5.02,0-.3.23-.79-.35-.84-.41-.04-.86-.15-1.1.42-.11.27-.09.93-.73.57-.61-.34-.06-.71.08-.95.44-.81.44-2.04,1.84-2.01.41,0,.26-.43.26-.67.02-.76.03-1.51,0-2.27-.02-.43.34-1.23-.71-.94-.06.02-.29-.3-.29-.46.01-.26.31-.31.52-.4,2.07-.83,3.65-2.23,4.81-4.28Z"/>
      <path class="cls-5" d="M19.24,33c-.27,0-.31,0-.35,0-.88-.09-2.17-.22-2.13-1.06.04-.82,1.34-1.2,2.26-1.19.91.01,2.25.37,2.24,1.19-.01.91-1.34.98-2.03,1.05Z"/>
      <path class="cls-6" d="M19.01,6c-.93-.11-2.21-.29-2.23-1.17-.02-.77,1.26-.98,2.16-1,.04,0,.08,0,.12,0,.9.02,2.17.22,2.16,1.01-.01.91-1.3,1.03-2.21,1.16Z"/>
      <path class="cls-3" d="M19.01,5.64c-.65-.08-1.55-.21-1.56-.82-.01-.54.88-.69,1.51-.7.03,0,.06,0,.08,0,.63.01,1.53.16,1.52.71,0,.64-.91.72-1.55.81Z"/>
      <path class="cls-2" d="M18.64,4.88c.03-.27.09-.64.34-.64.22,0,.28.36.29.62,0,.01,0,.02,0,.03,0,.26-.06.63-.29.62-.26,0-.3-.37-.33-.64Z"/>
      <path class="cls-3" d="M19.01,32.64c-.65-.08-1.55-.21-1.56-.82-.01-.54.88-.69,1.51-.7.03,0,.06,0,.08,0,.63.01,1.53.16,1.52.71,0,.64-.91.72-1.55.81Z"/>
      <path class="cls-2" d="M18.64,31.88c.03-.27.09-.64.34-.64.22,0,.28.36.29.62,0,.01,0,.02,0,.03,0,.26-.06.63-.29.62-.26,0-.3-.37-.33-.64Z"/>
    </g>
  </g>
</svg>