<?xml version="1.0" encoding="UTF-8"?>
<svg id="Layer_2" data-name="Layer 2" xmlns="http://www.w3.org/2000/svg" viewBox="0 0 58.74 31.16">
  <defs>
    <style>
      .cls-1 {
        fill: #fed82a;
      }

      .cls-2 {
        fill: #fed729;
      }

      .cls-3 {
        fill: #fed830;
      }

      .cls-4 {
        fill: #fed51d;
      }

      .cls-5 {
        fill: #fed412;
      }

      .cls-6 {
        fill: #fed727;
      }

      .cls-7 {
        fill: #fed725;
      }

      .cls-8 {
        fill: #fed622;
      }

      .cls-9 {
        fill: #fed829;
      }

      .cls-10 {
        fill: #fedf4d;
      }

      .cls-11 {
        fill: #fed51a;
      }

      .cls-12 {
        fill: #fed722;
      }

      .cls-13 {
        fill: #fed934;
      }

      .cls-14 {
        fill: #fed20e;
      }

      .cls-15 {
        fill: #fed61d;
      }

      .cls-16 {
        fill: #fed51c;
      }

      .cls-17 {
        fill: #fed61e;
      }

      .cls-18 {
        fill: #fede4c;
      }

      .cls-19 {
        fill: #fed825;
      }

      .cls-20 {
        fill: #fedb3c;
      }

      .cls-21 {
        fill: #fed82c;
      }

      .cls-22 {
        fill: #fed620;
      }

      .cls-23 {
        fill: #fed724;
      }

      .cls-24 {
        fill: #fed826;
      }

      .cls-25 {
        fill: #fedb3a;
      }

      .cls-26 {
        fill: #fed931;
      }

      .cls-27 {
        fill: #fed930;
      }

      .cls-28 {
        fill: #fed728;
      }

      .cls-29 {
        fill: #fed721;
      }

      .cls-30 {
        fill: #fed720;
      }

      .cls-31 {
        fill: #fed828;
      }

      .cls-32 {
        fill: #fed311;
      }

      .cls-33 {
        fill: #fedb43;
      }

      .cls-34 {
        fill: #fed82b;
      }

      .cls-35 {
        fill: #feda3c;
      }

      .cls-36 {
        fill: #fedd47;
      }

      .cls-37 {
        fill: #fedb40;
      }

      .cls-38 {
        fill: #fed831;
      }

      .cls-39 {
        fill: #fed519;
      }

      .cls-40 {
        fill: #fed621;
      }
    </style>
  </defs>
  <g id="Layer_1-2" data-name="Layer 1">
    <g>
      <path class="cls-14" d="M29.49,0c.18.31.26.64.25,1.01-.03.63-.12,1.26.91,1.2.49-.03.8.75.29.86-1.58.32-.91,1.4-.98,2.26-.02.23.2.76-.4.57-.3-.09-.93.26-.8-.56.05-.32-.26-.73-.16-1.02.23-.66.21-1.01-.62-1.04-.27,0-.6-.32-.59-.66.02-.39.37-.48.7-.46.57.04.83-.14.6-.75-.2-.53.12-.96.32-1.42h.48Z"/>
      <path class="cls-22" d="M1.67,13.44C1.11,13.11.56,12.79,0,12.47c0-.24,0-.48,0-.72.53-.46.94.14,1.4.21,1.39.22,2.75.65,4.12,1,.23.14.41.3.23.6-.41.45-.87.2-1.31.07-.5-.14-1.01-.13-1.51-.13-.42.04-.83-.09-1.25-.06Z"/>
      <path class="cls-11" d="M58.74,12.23c-1.59,1.12-3.18,2.24-4.78,3.37-.39.12-.36-.17-.39-.4.66-1.22,1.82-1.83,2.97-2.45.3-.21.49-.52.75-.78.49-.45.97-.18,1.45.02v.24Z"/>
      <path class="cls-39" d="M13.02,12.7c-.2-.67-.35-1.35-.61-1.99-.13-.31-.31-.58-.02-.85.39-.36.75,0,.91.24,1.14,1.61,2.99,2.54,4.02,4.23.55-.2.7-.94,1.36-.91.2-.26.38-.55.67-.72.62-.42,1.28-.78,2.04-.89.48,0,.89.04.58.7-.77.63-1.71.96-2.54,1.48-1.18.74-1.2.71-.15,1.61.05.17.04.33-.04.49-1.04.52-1.77-.1-2.39-.77-.67-.73-1.37-1.44-2.04-2.17-.26-.29-.48-.8-1.05-.52-.24.13-.47.32-.74.09Z"/>
      <path class="cls-17" d="M45.51,13.18c-.12.43-.24.86-.37,1.33.68.08,1.2-.52,1.85-.33.52.29.26.57,0,.85-.14.07.05.03-.1.06-2.02.36-2.44,1.94-2.77,3.6-.08.3-.19.59-.39.83-.24.25-.52.37-.87.35-.36-.05-.58-.24-.59-.63,1.06-1.76,1.25-3.85,2.09-5.69.18-.39.13-.89.57-1.14.47.04.32.56.58.77Z"/>
      <path class="cls-39" d="M45.51,13.18c-.5-.06-.42-.45-.46-.78-.62-.3-.79.31-1.15.55-.76.51-1.05,1.58-2.1,1.73-.27-.24-.24-.51-.08-.79.29-.82,1.13-1.15,1.63-1.77.55-.69,1.49-1,1.81-1.94.09-.28.48-.55.89-.39.49.2.32.64.19.91-.37.79-.45,1.66-.72,2.47Z"/>
      <path class="cls-40" d="M41.71,13.9c.01.27-.04.56.26.73.06.53-.24.72-.7.79-.31-.13-.6-.32-.9-.47-1.44-.94-2.82-1.99-4.6-2.25-.23-.03-.44-.16-.62-.32-.24-.32-.74-.43-.73-.94.14-.36.43-.38.75-.36,1.4.51,2.81.97,4.18,1.57.21.13.4.28.46.54.36.28.81.5,1.06.86.47.69.62.19.85-.14Z"/>
      <path class="cls-39" d="M21.83,9.58c1.46.66,2.89,1.41,4.54,1.44.15.17.18.36.12.58-.84.74-1.87.61-2.87.63-.26-.07-.45-.22-.56-.46-.09-.43-.4-.61-.79-.77-.55-.23-1.07-.55-1.02-1.29.15-.23.34-.3.58-.12Z"/>
      <path class="cls-23" d="M30.24,9.81c.35.24.49.63.69.97.28.19.54.41.74.69.75.97,1.22,2.12,1.9,3.13.23.34.32.72.13,1.12-.29.29-.62.21-.95.08-.87-1.47-1.76-2.94-2.66-4.39-.25-.4-.51-.82-.44-1.34.13-.23.3-.38.59-.27Z"/>
      <path class="cls-16" d="M30.24,9.81c-.17.08-.33.17-.5.25-.78.26-.99,1.1-1.6,1.54-.23.15-.48.25-.77.24-.32-.15-.73-.08-1.01-.36,0-.16,0-.32,0-.47,1.24-.39,2.13-1.11,2.37-2.47.04-.22.15-.65.51-.42.26.17.75.2.71.69-.02.37.04.71.27,1Z"/>
      <path class="cls-22" d="M10.08,13.9c.73-.1,1.35.32,2.02.48q1.25.29,1.08-.96c-.14-.18-.17-.39.07-.47.31-.11.51.13.68.35.18.64.63,1.2.61,1.9.05.37.2.8-.18,1.06-.29.19-.46-.16-.66-.3-.78-.67-1.78-.64-2.69-.88-.57-.15-1.35.03-1.58-.81.06-.4.23-.6.65-.38Z"/>
      <path class="cls-7" d="M48.89,13.87c1.65-.46,3.3-.94,4.96-1.36.31-.08.69.1,1.04.17.15.19.15.38.03.58-1.93.69-3.83,1.55-5.97.99-.12-.11-.14-.23-.06-.37Z"/>
      <path class="cls-4" d="M35.2,11.27c-.25,0-.52-.04-.68.24-.25.34-.59.48-.99.52-.66.05-1.28-.03-1.85-.41-.21-.23-.54-.41-.27-.79,1.02-.19,2.05.07,3.09-.22.5-.14.84-.78,1.45-.49.08.08.12.18.12.29-.05.29-.23.49-.43.68-.13.11-.28.17-.45.18Z"/>
      <path class="cls-40" d="M21.83,9.58c-.21,0-.4.05-.5.27-.38.36-.78.12-1.16-.03-.28.58-.01,1.36-.8,1.61-.18.02-.34-.04-.47-.16.11-.85.17-1.72.37-2.56.1-.43.38-.8.94-.28.48.45,1.07.77,1.62,1.15Z"/>
      <path class="cls-28" d="M39.81,13.19c-.15-.08-.3-.16-.45-.23-.83-1.07-.87-2.28-.68-3.54.17-.25.36-.44.7-.29.07,1.37,1.06,2.63.44,4.07Z"/>
      <path class="cls-3" d="M35.96,10.31c0-.07,0-.13,0-.2.84-.42,1.5-1.15,2.4-1.46.24.19.4.42.28.75-.56.68-1.25,1.14-2.14,1.26-.26,0-.43-.12-.54-.35Z"/>
      <path class="cls-11" d="M54.9,13.14c0-.16,0-.31,0-.47.7-.58,1.54-.67,2.4-.71-.03.39-.15.74-.5.97-.65-.11-1.2.69-1.89.21Z"/>
      <path class="cls-8" d="M18.9,11.28c.18,0,.36,0,.54,0,.75.55.22,1.1,0,1.66-.27.14-.37.54-.77.49-.53-.78-.02-1.44.22-2.14Z"/>
      <path class="cls-22" d="M6.49,13.18c.72.17,1.43.34,2.15.51.18.17.81.08.34.61-1.11.21-2.17.17-3.07-.63-.03-.44.07-.71.59-.49Z"/>
      <path class="cls-20" d="M48.89,13.87c0,.1.02.21.02.31,0,.54-.38.63-.79.69-.36-.08-.88-.01-.65-.67.39-.47.94-.26,1.42-.33Z"/>
      <path class="cls-6" d="M38.6,9.32c-.08-.22-.16-.45-.24-.67.33-.29.7-.44,1.07-.14.19.16.18.43-.06.61-.2.09-.4.17-.6.26l-.11.04-.07-.1Z"/>
      <path class="cls-8" d="M13.85,13.42c-.22.04-.43-.74-.66-.01-.24-.19-.18-.46-.17-.71.22-.08.44-.16.66-.24.61.22.48.57.18.96Z"/>
      <path class="cls-9" d="M9.11,14.11c-.16-.14-.32-.28-.47-.42.49.03,1.02-.21,1.45.21-.33.01-.49.19-.5.51-.26.07-.4-.05-.47-.29Z"/>
      <path class="cls-36" d="M47.47,14.21c.05.47.42.4.73.42-.31.68-.74.55-1.22.19.17-.21.16-.43,0-.64.16,0,.32.02.48.03Z"/>
      <path class="cls-9" d="M6.49,13.18c-.27,0-.47.11-.49.41-.06.06-.12.1-.16.08-.12-.05-.1-.15-.08-.25-.08-.15-.16-.31-.24-.46.33.03.71-.12.97.22Z"/>
      <path class="cls-10" d="M31.41,10.82c.08.21.16.43.24.64-.05.12-.12.13-.21.05-.29-.16-.38-.46-.51-.73.16.01.32.03.49.04Z"/>
      <path class="cls-11" d="M32.61,25.85c-.32,0-.65,0-.97.01-.33-.15-.44-.39-.34-.74.69-.81.85-1.88,1.12-2.82.34-1.22.99-2.33,1.18-3.59.15-.32.22-.7.61-.83.12,0,.23.02.33.08.05,2.02-.57,3.91-1.18,5.86,1.08-.34,1.91-1.33,3.14-1.16.26.1.34.3.34.56-.41.93-1.42.99-2.14,1.46-.36.23-.8.3-1.17.51-.13.46-.48.63-.92.66Z"/>
      <path class="cls-40" d="M50.83,18.23c-2.16,1.58-3.53,3.99-5.76,5.5-.21.1-.3-.03-.38-.19-.01-1,1.16-1.26,1.34-2.13-.04-.3-.24-.59-.05-.9,1.24-.54,2.37-1.24,3.15-2.03.36-.2.11-.33.22-.21.04.04.02.07-.05.11-.39.25-.78.42-1.2.07-.09-.17-.11-.35-.08-.54.22-.61.72-.69,1.27-.68.58.23,1.73-.4,1.53,1.01Z"/>
      <path class="cls-7" d="M28.01,27.39c-.6-.33-.31-1.07-.68-1.5-.17-.23-.06-.54-.19-.78-.75-1.78-1.38-3.59-1.63-5.52-.05-.39-.1-.78.08-1.16.18-.19.39-.31.67-.29.28.11.47.33.52.61.48,2.82,1.64,5.47,1.93,8.33-.1.39-.41.32-.7.3Z"/>
      <path class="cls-17" d="M26.85,25.85c-.4,0-.81,0-1.21-.01-.35-.06-.56-.24-.56-.62-.15-.19-.39-.24-.58-.38-.08-.07-.14-.15-.18-.24-.02-.11-.02-.21,0-.31.07-.21.22-.37.38-.51.43-.35.25-.78.17-1.2-.08-.42-.29-.84,0-1.25.24-.12.46-.04.68.07.48.35.66.86.8,1.41.2.8.34,1.63.87,2.31.08.36-.06.6-.38.75Z"/>
      <path class="cls-15" d="M1.67,13.44c.34-.42.81-.2,1.23-.24,1.29.97,2.64,1.85,3.92,2.84.31.24.66.45.74.88-.06.39-.24.56-.63.35-1.77-1.26-3.67-2.33-5.26-3.83Z"/>
      <path class="cls-22" d="M43.4,24.41c-2.1.06-4.13.79-6.24.76-.27-.53.14-.69.49-.89,1.61-.09,3.13-.68,4.72-.87.54-.06,1.08-.3,1.54.21.27.55-.11.67-.51.79Z"/>
      <path class="cls-11" d="M31.41,25.23c.08.21.16.42.23.62-.57.02-.67.39-.74.88-.15,1.12-.36,2.24-.97,3.22-.35.01-.38-.26-.46-.5.07-1.46.53-2.87.67-4.32.05-.52.41-.93.88-1.2.12-.05.24-.06.36-.02.47.43.13.88.02,1.33Z"/>
      <path class="cls-12" d="M20.62,25.13c-1.6-.24-3.2-.48-4.8-.73-.54-.36-.25-.61.12-.85,1.7.17,3.46,0,5.08.74.38.52-.09.64-.39.84Z"/>
      <path class="cls-31" d="M20.62,25.13c.16-.21.32-.43.47-.64,1.16-.58,2.27-.22,3.37.2l-.02-.02c.29.23.55.53.97.25.45.21-.41.75.23.91-1.67-.24-3.35-.47-5.02-.71Z"/>
      <path class="cls-8" d="M50.83,18.23c-.05-1.1-1-.45-1.46-.74.78-.66,1.69-1.13,2.58-1.61.54-.29.96-1.03,1.76-.73,0,.19.07.35.26.43-.93,1.02-2.45,1.33-3.13,2.64Z"/>
      <path class="cls-12" d="M11.5,21.85c-.63-.34-1.12-.75-1.38-1.51-.26-.78-1.4-.81-1.73-1.63-.08-.23.06-.33.23-.41.38-.12.71-.01,1.01.21.59.59,1.27,1.1,1.7,1.83-.22.49.35.79.31,1.23-.02.11-.07.2-.15.28Z"/>
      <path class="cls-27" d="M29.73,29.49c.07.15.13.31.2.46,0,.16,0,.32,0,.49-.39.06-.8.05-1.16.27-.48-1.06-.87-2.13-.75-3.32.12-.31.31-.14.48-.06.87.46.52,1.62,1.24,2.17Z"/>
      <path class="cls-40" d="M11.5,21.85v-.27c.15-.14.32-.19.51-.19,1,.21,1.44,1.09,2.05,1.76.01.32.07.68-.45.62-.91-.41-1.48-1.2-2.11-1.92Z"/>
      <path class="cls-34" d="M37.64,24.48c-.17.22-.52.32-.48.68-.52.41-1.1.24-1.67.21-.11-.25-.02-.46.1-.67.62-.67,1.32-.55,2.05-.22Z"/>
      <path class="cls-5" d="M28.76,30.71c.2-.89.67-.65,1.16-.27.08.43-.12.67-.54.71-.32.03-.65.03-.62-.45Z"/>
      <path class="cls-35" d="M6.93,17.27c.27-.01.47-.11.49-.41.73-.04,1.48-.12,1.97.62-.2.27-.5.29-.8.32-.4-.04-.65.25-.94.45-.3-.28-.21-.86-.73-.99Z"/>
      <path class="cls-21" d="M7.66,18.26c-.03-.52.17-.82.73-.76.15.15.32.29.37.51.03.17,0,.32-.12.44-.09.08-.17.17-.26.25-.24-.15-.49-.3-.73-.45Z"/>
      <path class="cls-34" d="M35,25.38c-.34.32-.76.29-1.18.28-.54-.13-.24-.41-.12-.66.4-.26.82-.37,1.28-.16.14.17.16.35.02.53Z"/>
      <path class="cls-9" d="M43.4,24.41c.15-.21.49-.28.47-.62.23-.38.53-.54.95-.31l.25.26c-.52.31-.99.75-1.67.67Z"/>
      <path class="cls-26" d="M33.79,25.13c0,.18-.24.37.03.53-.36.36-.8.2-1.21.19.68-.02.14-.71.5-.91.18.23.49,0,.68.19Z"/>
      <path class="cls-15" d="M15.1,24.42c-.26.03-.54.12-.76-.13-.08-.19-.12-.39-.01-.59.3-.25.62-.25.95-.09.32.35.17.6-.18.8Z"/>
      <path class="cls-33" d="M14.39,23.79c-.02.17-.03.33-.05.5-.25-.17-.49-.35-.74-.52.31-.15.29-.43.29-.7.65-.08.45.41.49.73Z"/>
      <path class="cls-33" d="M15.1,24.42c.08-.21.16-.42.23-.63.16-.18.33-.18.49,0-.17.21-.17.41,0,.62-.24,0-.48,0-.72,0Z"/>
      <path class="cls-38" d="M26.85,25.85c.08-.22.15-.44.23-.66.15-.18.32-.16.49-.03-.08.24-.16.48-.24.71-.16,0-.32-.02-.48-.03Z"/>
      <path class="cls-26" d="M35,25.38v-.41c.22-.24.46-.24.72-.05-.08.15-.15.3-.23.46-.16,0-.32,0-.49,0Z"/>
      <path class="cls-24" d="M21.4,11.99c.56-.36,1.22-.38,1.85-.5.01.23.08.43.31.53-.56.25-1.11.51-1.74.41.27-.53-.14-.43-.42-.44Z"/>
      <path class="cls-16" d="M19.18,15.63c.33-.02.58.16.8.37-.03.18-.15.28-.33.32-.16-.07-.33-.13-.49-.2,0-.17.01-.33.02-.5Z"/>
      <path class="cls-22" d="M42.91,19.66c-.71.86-2.04.95-2.53,2.07-.14.22-.1.51-.25.73-1.13.37-2.24.8-3.45.82,0-.2-.05-.39-.25-.5,1.87-1.42,4.13-2.17,5.99-3.59,0,.31.17.46.48.47Z"/>
      <path class="cls-39" d="M45.08,19.14c-.44.33-.93.32-1.44.24.07-.21.14-.42.22-.62.36.03.6-.4.99-.26.21.18.62-.06.71.27.09.33-.31.24-.47.37Z"/>
      <path class="cls-5" d="M33.59,15.81c.99-.42,2.09-.39,3.01-.11,1.56.48,2.76.05,3.95-.84.33,0,.65-.02.69.44-.94.87-2.16,1.23-3.33,1.38-1.29.17-2.39.56-3.42,1.29-.07,0-.13,0-.2,0-.08-.07-.16-.12-.26-.16-.75.1-.69.77-.84,1.26-.36,1.11-.38,2.32-1.02,3.34-.64.37-.71-.09-.79-.54-.06-1.64.82-3.15.68-4.83-.04-.45.34-.97.84-1.24.23-.19.47-.11.7-.01Z"/>
      <path class="cls-1" d="M35.24,12.19c-.51-.37-1.2-.03-1.71-.43.33-.08.66-.17.99-.25.16.32.74.18.72.68Z"/>
      <path class="cls-9" d="M27.99,11.5c-.25.25-.01.73-.42.91-.17-.11-.28-.25-.29-.45,0-.08.03-.15.07-.22.21-.08.42-.16.63-.24Z"/>
      <path class="cls-25" d="M14.14,15.11c.67.37.79,1.11.86,1.72.04.36.25.6.3.91-.12.18-.26.32-.5.32-.55-.64-.6-1.48-.86-2.24.12.09.24.18.36.26.21-.37-.05-.67-.16-.98Z"/>
      <path class="cls-18" d="M36.4,10.53c-.19.38-.57.36-.92.42.16-.21.32-.43.48-.64.15.07.29.15.44.22Z"/>
      <path class="cls-12" d="M33.75,18.72c.04-.41-.11-.91.52-1.03,0,.09.01.19.02.28-.18.25-.36.5-.54.74Z"/>
      <path class="cls-13" d="M45.08,19.14c.7-.5-.19-.41-.24-.64,1.13-.12,2.16-.8,3.35-.52,0,.15,0,.29,0,.44-1.04.23-2.01.77-3.12.72Z"/>
      <path class="cls-19" d="M46.5,21.36c-.85-.19-1.61.17-2.38.39-.15-.15-.15-.3-.02-.46.4-.94,1.23-.61,1.94-.64-.03.36.37.44.47.71Z"/>
      <path class="cls-32" d="M25.64,15.82c.7.68.58,1.53.5,2.38-.1.2-.28.25-.48.25-.31.12-.4-.14-.54-.31-.24-.31-.27-.02-.36.12-.47.48-.63.14-.75-.28-.49-.67-1.29-.83-1.96-1.2-.46-.31-1.02.03-1.49-.23-.31-.08-.69.15-.92-.24.11-.11.22-.21.33-.32,1.72.03,3.4-.69,5.14-.2.18-.12.36-.12.52.03Z"/>
      <path class="cls-17" d="M24.65,18.22c.3,1.11.92,2.13.84,3.33-.17-.07-.34-.14-.51-.21-.66-1.02-.73-2.21-.96-3.36.19.14.28.53.64.24Z"/>
      <path class="cls-29" d="M24.44,24.48c-.7-.19-1.33-.54-1.92-.95-.13-.18-.12-.35.02-.52.75.25,1.52.44,2.16.94-.09.18-.17.35-.26.53Z"/>
      <path class="cls-5" d="M31.88,22.77c-.04.44-.19.84-.44,1.21-.1,0-.2,0-.3,0-.93-.67.33-.77.31-1.2.14-.15.28-.14.43,0Z"/>
      <path class="cls-23" d="M11.26,20.42c.28,0,.57-.08.79.17-.43.21.16.51-.07.74,0,.08,0,.16,0,.24-.16,0-.32,0-.49,0,.15-.44-1.16-.56-.25-1.16Z"/>
      <path class="cls-2" d="M9.59,18.22c-.31-.08-.62-.15-.93-.23-.2-.1-.26-.28-.26-.49.34,0,.68-.02,1.02-.03.22.02.44.05.66.07.23.5.04.71-.48.68Z"/>
      <path class="cls-30" d="M17.5,20.87c-1.2-.74-2.38-1.52-3.84-1.66-.17-.21-.51-.36-.23-.71.31-.05.63-.1.92.05.72.37.48-.16.46-.48.09-.22.27-.31.5-.32.27,1.39,1.7,1.69,2.46,2.62-.02.21-.07.4-.27.51Z"/>
      <path class="cls-2" d="M13.43,18.5c.08.24.15.47.23.71-1.19-.27-2.38-.53-3.58-.8.04-.86.81-.38,1.18-.63.72.24,1.45.48,2.17.72Z"/>
      <path class="cls-21" d="M11.26,17.78c-.32.35-.98.06-1.18.63-.15-.01-.31-.02-.46-.04,0-.06,0-.11-.03-.16.3-.13.47-.34.48-.68.37.23.79.19,1.19.24Z"/>
      <path class="cls-4" d="M17.5,20.87c0-.21.05-.41.27-.51,1.29.64,2.57,1.3,3.87,1.91.38.18.66.42.9.74,0,.17-.01.35-.02.52-1.8-.99-3.92-.85-5.78-1.64.11-.79.62-.35.99-.32.14-.04.29-.07.43-.11-.22-.2-.45-.4-.67-.59Z"/>
      <path class="cls-16" d="M20.57,16.56c.5.05,1.05-.22,1.49.23-.49-.08-1.04.16-1.49-.23Z"/>
      <path class="cls-9" d="M25.64,15.82c-.17,0-.35-.02-.52-.03.09-1.23.97-2.08,1.49-3.1.2,0,.35.09.46.25-.18,1.11-1.16,1.82-1.43,2.88Z"/>
      <path class="cls-16" d="M27.07,12.94c-.2,0-.37-.06-.46-.25.02-.43.18-.74.68-.73.2.09.27.25.29.45-.17.18-.33.35-.5.53Z"/>
      <path class="cls-22" d="M42.68,21.85c-.86.28-1.72.51-2.63.48.06-.23-.23-.66.34-.6.83-.17,1.59-.82,2.52-.37.12.25-.07.36-.22.48Z"/>
      <path class="cls-37" d="M42.68,21.85c.07-.16.15-.32.22-.48.39-.09.75-.86,1.19-.07,0,.15.02.31.02.46-.49-.09-.93.44-1.43.09Z"/>
      <path class="cls-3" d="M31.88,22.77c-.14,0-.29,0-.43,0-.02-.34-.15-.7.19-.97.08.22-.2.76.44.49.04.21-.04.36-.21.47Z"/>
      <path class="cls-34" d="M17.74,21.58c-.35.03-.76-.11-.99.32-1.22.47-2.25-.23-3.34-.55.17-.13.41-.23.27-.52,1.35.25,2.71.5,4.06.76Z"/>
      <path class="cls-12" d="M13.67,20.82c.1.27.18.53-.27.52-.47,0-.95,0-1.42-.01.06-.24-.81-.57.07-.74.53.15,1.13-.21,1.62.23Z"/>
    </g>
  </g>
</svg>