<?xml version="1.0" encoding="UTF-8"?>
<svg id="Layer_2" data-name="Layer 2" xmlns="http://www.w3.org/2000/svg" viewBox="0 0 278.71 53.71">
  <defs>
    <style>
      .cls-1 {
        fill: #fcd336;
      }
    </style>
  </defs>
  <g id="Layer_1-2" data-name="Layer 1">
    <g>
      <path class="cls-1" d="M37.34,7.24v6.56h9.54l-1.96,6.22h-7.58l-.07,11.09c-.09,5.32-1.13,9.29-3.11,11.91-1.89,2.57-5.44,4.64-10.62,6.22l-9,2.71c-.54.18-1.44.27-2.71.27-1.08,0-2.28-.18-3.59-.54-1.44-.45-2.55-.78-3.31-.98-.77-.2-1.22-.33-1.35-.37-1.53,0-2.64,1.13-3.31,3.38h-.27c0-4.29,1.24-7.19,3.72-8.73,1.13-.5,2.14-.74,3.04-.74,1.35,0,3.02.54,5.01,1.62,1.4.81,2.5,1.44,3.31,1.89.81.45,1.33.72,1.56.81h.41c.45,0,.99-.34,1.62-1.01,1.35-1.49,2.03-4.19,2.03-8.12v-19.42l-4.8-.2c-3.2-.14-5.77.97-7.71,3.31h-.34c0-3.16,1.4-5.59,4.19-7.31,2.3-1.35,5.19-2.03,8.66-2.03v-6.36c3.88,0,7.1-.63,9.67-1.89.77-.36,1.83-1.01,3.18-1.96s3-2.14,4.94-3.59c2.84,1.4,5.52,2.1,8.05,2.1s4.8-.5,7.1-1.49c-.54,2.58-1.62,4.56-3.25,5.93-1.8,1.55-3.95,2.32-6.43,2.32-2.21,0-4.42-.54-6.63-1.62ZM31.12,7.78c-.59.27-1.24.5-1.96.68-.05,0-.24.03-.57.1-.34.07-.85.15-1.52.24v21.85c0,4.06-.38,7.24-1.15,9.54-1.04,2.93-2.93,5.5-5.68,7.71l.14.27c1.94-.68,3.6-1.48,4.97-2.4,1.38-.92,2.49-2.02,3.35-3.28.86-1.26,1.48-2.72,1.86-4.36.38-1.65.58-3.53.58-5.65V7.78Z"/>
      <path class="cls-1" d="M54.39,44.85c-3.07-1.62-4.49-3.9-4.26-6.83l.07-1.22v-17.66l-1.96-2.1,5.01-4.13,5.21,4.33-1.69,1.89v18.74c.23.9.86,1.62,1.89,2.16l1.22-.81.68.61-6.16,5.01ZM53.04,9.88h-.88l1.62-6.9h5.01l-5.75,6.9Z"/>
      <path class="cls-1" d="M79.55,21.65l-4.06-3.99-2.64,2.03v17.52l3.65,2.84,1.96-1.42.81.81-6.16,5.28c-2.53-2.17-5.41-3.88-8.66-5.14,1.22-.99,1.83-2.61,1.83-4.87v-13.6c0-1.17-.54-2.21-1.62-3.11l-1.15.74-.74-.74,5.75-5.07c1.4.72,2.37,1.4,2.91,2.03.72.77,1.17,1.85,1.35,3.25l6.83-5.21,4.4,4.8-4.46,3.86Z"/>
      <path class="cls-1" d="M93.29,30.51v7.04l5.68,2.5,4.46-2.84.74.81c-.59.36-1.18.74-1.79,1.15-.61.41-1.25.86-1.93,1.35l-5.89,4.13c-3.02-1.67-6.13-2.8-9.34-3.38,1.26-1.31,1.89-2.95,1.89-4.94v-18.06c1.58-.72,3.12-1.53,4.63-2.44,1.51-.9,3.01-1.87,4.5-2.91l8.73,8.73c-4.96,3.47-8.86,6.43-11.7,8.86ZM93.22,17.32v11.64l6.43-5.07-6.43-6.56Z"/>
      <path class="cls-1" d="M194.22,45.26c-1.8-.95-3.12-2.05-3.96-3.31-.84-1.26-1.39-2.93-1.66-5.01-5.77,5.55-11,8.32-15.69,8.32-5.68,0-9.9-2.98-12.65-8.93-3.52,4.87-6.95,7.67-10.28,8.39-1.26.31-2.44.47-3.52.47-2.16,0-4.27-.5-6.33-1.49-2.05-.99-3.69-2.37-4.9-4.13-2.35-3.16-3.52-6.88-3.52-11.16,0-2.12.32-4.37.95-6.76,1.8-6.81,6.49-12.29,14.07-16.44l-.14-.27c-2.21.77-3.77,1.13-4.67,1.08l-3.72-.2h-1.69c-1.8,0-3.27.56-4.4,1.69-.77.81-1.58,2.19-2.44,4.13l-.88-.27c0-2.89.63-5.37,1.89-7.44,1.53-2.48,3.65-3.7,6.36-3.65l1.89.07c.18.05.75.21,1.73.51.97.29,2.38.76,4.23,1.39,1.31.45,2.44.68,3.38.68,1.8,0,3.56-.92,5.28-2.77h1.62v38.83c1.53-.99,3.02-2.28,4.46-3.86-.95-2.61-1.42-5.05-1.42-7.31,0-4.55,1.51-8.91,4.53-13.06,2.71-3.7,6.2-6.81,10.49-9.34l-.07-.27c-.63.09-1.26.17-1.89.24-.63.07-1.26.1-1.89.1h-2.84c-2.48,0-4.26.23-5.34.68-1.71.68-2.95,1.94-3.72,3.79l-.74-.27c.41-2.57,1.22-4.71,2.44-6.43,1.53-2.07,3.49-3.11,5.89-3.11h.61c.5,0,2.37.54,5.62,1.62,1.62.54,2.86.81,3.72.81,1.85,0,3.16-.81,3.92-2.44h1.42v16.84c1.62.54,2.91.81,3.86.81s2.41-.27,4.26-.81v-8.66l-2.3-2.37-1.96,1.96-1.08-1.01,6.43-6.77,5.01,4.67,4.19-2.57.54.27c-2.12,2.39-3.18,4.67-3.18,6.83v26.38c0,1.89.5,3.34,1.49,4.33l2.37-1.89.81,1.15-6.56,5.95ZM148.69,5.48c-3.38,1.62-6.13,4.17-8.25,7.64-2.08,3.43-3.11,7.06-3.11,10.89,0,4.15,1.4,7.76,4.19,10.82,1.49-1.49,2.23-3.83,2.23-7.04v-10.55c0-3.7,1.71-7.55,5.14-11.57l-.2-.2ZM153.63,2.91c-1.35.95-2.29,1.87-2.81,2.77-.52.9-.78,2.14-.78,3.72v13.46c0,3.29-.56,5.86-1.69,7.71-1.08,1.85-3.04,3.61-5.89,5.28,2.75,2.48,6.09,3.72,10.01,3.72l1.15-.2V2.91ZM174.8,5.48c-3.2,1.99-5.77,4.69-7.71,8.12-1.94,3.43-2.91,7.01-2.91,10.76s1.15,7.19,3.45,10.49c1.67-1.8,2.5-4.15,2.5-7.04v-10.55c0-3.83,1.62-7.69,4.87-11.57l-.2-.2ZM178.93,2.91c-1.85,1.44-2.77,3.43-2.77,5.95v14c0,3.16-.58,5.73-1.73,7.71-1.15,1.98-3.1,3.74-5.85,5.28,2.8,2.35,6.25,3.52,10.35,3.52V2.91ZM188.47,26.79c-1.49-.45-2.84-.68-4.06-.68s-2.57.23-4.06.68l.07,12.18c2.8-.77,5.48-2.03,8.05-3.79v-8.39ZM188.47,18.47c-1.85.45-3.31.68-4.4.68-1.26,0-2.48-.23-3.65-.68v6.97c1.17-.36,2.5-.54,3.99-.54s2.89.18,4.06.54v-6.97Z"/>
      <path class="cls-1" d="M214.51,44.92c-3.56-2.61-7.62-4.4-12.18-5.34,1.22-.99,1.83-2.73,1.83-5.21v-16.03c3.61-.99,6.81-2.8,9.61-5.41,4.24,2.75,7.82,4.33,10.76,4.74v22.05c-3.97,1.17-7.31,2.91-10.01,5.21ZM218.17,20.97l-7.78-2.98v18.67c.77.32,1.54.63,2.33.95.79.32,1.61.63,2.47.95,1.17.45,2.17.79,2.98,1.01v-18.6Z"/>
      <path class="cls-1" d="M240.69,44.92c-3.56-2.61-7.62-4.4-12.18-5.34,1.22-.99,1.83-2.73,1.83-5.21v-16.03c3.61-.99,6.81-2.8,9.61-5.41,4.24,2.75,7.82,4.33,10.76,4.74v22.05c-3.97,1.17-7.31,2.91-10.01,5.21ZM244.35,20.97l-7.78-2.98v18.67c.77.32,1.54.63,2.33.95.79.32,1.61.63,2.47.95,1.17.45,2.17.79,2.98,1.01v-18.6Z"/>
      <path class="cls-1" d="M278.17,39.71c-3.97,1.31-7.31,3.04-10.01,5.21-3.61-2.61-7.67-4.4-12.18-5.34,1.26-1.13,1.89-2.86,1.89-5.21v-16.17c.81-.23,1.73-.55,2.74-.98,1.01-.43,2.15-.96,3.42-1.59l-8.59-5.55V3.65l20.56,13.12c.59-.99,1.49-1.74,2.71-2.23-.36.99-.54,1.96-.54,2.91v22.26ZM271.74,20.63l-5.34-3.58-2.23,1.35v18.47l7.58,2.71v-18.94Z"/>
    </g>
  </g>
</svg>