<?xml version="1.0" encoding="UTF-8"?>
<svg id="Layer_2" xmlns="http://www.w3.org/2000/svg" viewBox="0 0 37.37 37.04">
  <defs>
    <style>
      .cls-1 {
        fill: #f1f2f2;
      }

      .cls-2 {
        fill: #0e0e0e;
      }
    </style>
  </defs>
  <g id="Layer_1-2" data-name="Layer_1">
    <g>
      <path class="cls-1" d="M37.36,18.59c0,5.5,0,11,0,16.49,0,1.09-1.07,1.93-2.51,1.94-2.4.02-4.8,0-7.19,0-8.23,0-16.46,0-24.7,0-2.13,0-2.84-.63-2.86-2.75C-.02,23.53-.04,12.77.08,2.01.09.98,1.14.17,2.55.12,4.06.06,5.58.01,7.09,0c7.75-.01,15.51-.01,23.26,0,1.56,0,3.11.05,4.67.12,1.59.07,2.34.86,2.34,2.45,0,5.34,0,10.68,0,16.02Z"/>
      <path class="cls-2" d="M18.66,36.11c-4.91,0-9.83,0-14.74,0-.43,0-.85-.05-1.28-.16-1.09-.27-1.52-.78-1.51-1.97.08-10.08.1-20.16.13-30.24,0-2.07.55-2.63,2.67-2.63,5.91,0,11.83.04,17.74.05,3.88,0,7.75-.03,11.63-.05.24,0,.48-.02.72,0,1.71.15,2.2.68,2.2,2.37,0,10-.02,20-.03,30,0,2.08-.55,2.63-2.66,2.64-4.95,0-9.91,0-14.86,0,0,0,0,0,0,0Z"/>
      <path class="cls-1" d="M24.39,26.18c.55.76.75,1.56.53,2.47-.12.5-.49.78-.88.88-.53.13-.4-.46-.57-.73-1.03-1.72-2.48-2.72-4.56-2.77-2.23-.06-3.8.96-4.87,2.82-.43.75-.87.82-1.33.09-.44-.7-.4-1.47,0-2.16.29-.5.21-.68-.29-.96-1.09-.6-1.37-1.68-1.41-2.83-.02-.59.08-1.11-.84-.77-.44.16-.89-.18-1.06-.6-.17-.42.35-.44.57-.63,1.74-1.45,1.79-3.44.15-4.9-.24-.22-.94-.2-.64-.79.2-.39.66-.72,1.09-.6.67.18.75-.06.7-.61-.03-.27.07-.53.15-.79.28-.97.94-1.54,1.65-2.21.61-.59-.67-1.51-.28-2.46.23-.57.54-1.05,1.08-1.16.54-.12.44.55.64.85,1.09,1.7,2.59,2.68,4.65,2.66,2.06-.02,3.54-1.05,4.6-2.76.17-.27.06-.86.56-.76.41.08.79.39.96.83.3.76.17,1.48-.21,2.18-.12.22-.49.5-.1.69,1.64.79,1.7,2.26,1.67,3.74.34.26.52-.09.77-.15.61-.14,1.05.15,1.3.6.28.5-.35.51-.58.71-1.89,1.61-1.95,3.45-.15,4.94.25.21.95.15.65.75-.23.46-.71.62-1.24.47-.18-.05-.37-.11-.61-.18-.1,1.7-.28,3.34-2.11,4.17Z"/>
      <path class="cls-1" d="M18.81,9.28c-.96.13-1.78-.28-2.59-.72-1.16-.63-1.24-1.06-.14-1.83.85-.59,1.54-1.54,2.79-1.44,1.5.12,2.37,1.18,3.32,2.13.24.24.19.57-.18.78-.99.58-1.97,1.22-3.2,1.09Z"/>
      <path class="cls-1" d="M7.33,21.01c-1.04-.02-2.26-1.39-2.27-2.54,0-1.16,1.36-2.6,2.41-2.54,1.22.07,3.06,1.56,3.07,2.49.01,1.04-1.94,2.61-3.22,2.58Z"/>
      <path class="cls-1" d="M30.18,21.01c-1.24,0-3.2-1.51-3.2-2.48,0-.97,2.05-2.6,3.27-2.6,1.11,0,2.23,1.38,2.21,2.69-.02,1.02-1.32,2.38-2.28,2.39Z"/>
      <path class="cls-1" d="M18.66,31.6c-1.31-.24-2.35-.95-3.21-1.94-.28-.32-.21-.59.16-.88,1.83-1.46,4.57-1.41,6.38.1.46.38.17.6,0,.88-.54.84-2.29,1.78-3.33,1.85Z"/>
      <path class="cls-1" d="M14.64,2.86c-.06.38-.29.61-.51.84-.71.74-1.61,1.16-2.56,1.45-.76.23-1.49.45-2.13.98-.59.48-2.16-.26-2.23-1.01-.03-.33.28-.45.5-.6,1.31-.92,2.87-1.44,4.02-2.67.61-.66,1.51-.12,2.23.19.34.14.71.4.69.84Z"/>
      <path class="cls-1" d="M25.3,1.53c.21.1.55.14.69.34.94,1.27,2.49,1.64,3.7,2.49.29.2.95.42.64.79-.44.51-.94,1.67-1.69,1.16-1.35-.91-2.99-1.06-4.3-1.96-.61-.42-1.52-.83-1.3-1.66.26-.96,1.36-.94,2.25-1.17Z"/>
      <path class="cls-1" d="M12.24,35.38c-.21.04-.57-.05-.74-.31-.87-1.31-2.43-1.59-3.59-2.44-.3-.22-1.03-.4-.59-.88.44-.49.91-1.65,1.73-1.05,1.14.84,2.49,1,3.68,1.62.18.09.36.18.51.3.58.45,1.52.86,1.25,1.68-.27.82-1.26.97-2.24,1.07Z"/>
      <path class="cls-1" d="M25.24,35.37c-.94-.14-1.95-.21-2.2-1.08-.24-.82.67-1.23,1.28-1.66,1.27-.88,2.89-.97,4.18-1.91.77-.55,1.28.56,1.69,1.09.39.5-.34.63-.64.86-1.1.86-2.66,1.03-3.46,2.36-.18.3-.59.39-.86.34Z"/>
      <path class="cls-1" d="M4.26,4.73c-.27.17-.52.36-.8.52-.44.26-.88.18-1.18-.2-.33-.42-.02-.73.29-1.01.25-.23.66-.34.5-.83-.4-1.22.5-1.41,1.33-1.59.38-.08.8-.05,1.19-.06.16,0,.43-.03.46.04.35.83.86,1.67.92,2.53.05.74-1.3,1.17-2.21.85-.24-.27-.21-.56-.1-.87.1-.29.25-.57.18-.97-.12.61-.12,1.2-.59,1.6Z"/>
      <path class="cls-1" d="M32.83,4.98c-.97.58-1.57-.06-2.15-.67-.23-.24-.3-.6.1-.79.31-.15.4-.39.36-.68-.2-1.77,1.07-1.3,1.96-1.22.89.08,1.83.31,1.43,1.6-.13.43.19.56.43.75.36.29.72.62.36,1.09-.34.44-.83.42-1.29.14-.24-.15-.46-.32-.68-.47-.51-.36-.47-.95-.6-1.52-.15.64.56,1.19.08,1.79Z"/>
      <path class="cls-1" d="M32.51,6.16c.57-.05,1.11.41,1.8.19.29-.09,1.03.13.59,1.15-.38.88-.35,1.76-1.61,1.63-.27-.03-.54-.17-.84.12.11.46.81.57.83,1.21-.67-.08-1.18-.54-1.91-.37-.54.12-1.37-2.18-.97-2.63.3-.34.7-.24.98-.05.54.36.97.24,1.39-.16.52-.51-.51-.61-.25-1.1Z"/>
      <path class="cls-1" d="M4.76,32.01c.78-.55,1.35-.04,1.91.4.24.19.49.74.32.78-1.25.25.16,2.29-1.51,2.18-.4-.03-.8-.01-1.2-.02-.43,0-.91-.17-1.03-.5-.33-.87-.47-1.78-1.06-2.59-.26-.36.47-.73.99-.61.47.11.86.41,1.13.83.35.36.43.81.5,1.28.12-.59-.49-1.17-.05-1.75Z"/>
      <path class="cls-1" d="M5.11,6.12c.12.57-.78.65-.23,1.14.33.3.69.55,1.17.26.38-.23.82-.47,1.19-.04.31.36-.09.76-.09,1.12.03,2.11-1.87,1.18-2.79,1.96,0-.71.63-.8.79-1.23-.15-.37-.45-.23-.71-.21-.96.09-1.54-.11-1.65-1.3-.06-.71-.5-1.47.53-1.45.63,0,1.21-.18,1.77-.24Z"/>
      <path class="cls-1" d="M32.4,35.37c-.79.16-1.36-.07-1.24-1.15.02-.18-.05-.42-.18-.55-.26-.28-.73-.45-.36-.95.36-.5.83-.9,1.47-.9.59,0,.88.35.65.95-.08.21-.33.37-.38.59-.08.34-.15.73.07,1.03.15.19.47.13.66.02.4-.24.03-.56.02-.84-.02-.62.04-1.18.61-1.58.5-.36,1.05-.57,1.5-.07.52.58-.07.91-.46,1.22-.18.15-.35.21-.35.53-.02,1.56-.18,1.69-2,1.7Z"/>
      <path class="cls-1" d="M5.1,30.8c-.66,0-1.2-.42-1.88-.19-.23.08-.79-.1-.64-.96.29-1.6,1.04-2.13,2.82-1.64-.47-.71-1.03-.86-1.11-1.43.68-.03,1.22.6,1.96.33.32-.12,1.17,2.1.96,2.48-.21.38-.55.28-.84.21-.26-.06-.49-.29-.75-.33-.45-.06-.78.3-.97.59-.23.36.44.46.44.94Z"/>
      <path class="cls-1" d="M33.19,26.53c-.04.65-.67.74-.82,1.21.34.43.75.07,1.11.12.72.11,1.36.3,1.21,1.24-.03.2-.09.41.08.55.82.72-.27,1.02-.38.97-.7-.33-1.3.23-1.95.16-.03-.44.44-.53.56-.83-.51-.56-1.01-.89-1.75-.39-.21.15-.61.22-.87-.09-.25-.3-.16-.63,0-.89.37-.56-.04-1.79.97-1.68.7.08,1.16-.26,1.84-.38Z"/>
      <path class="cls-2" d="M4.76,32.01c-.1.36-.09.7.22.97.31.27.26.63.25.99,0,.44-.27.51-.63.49-.44-.03-.41-.31-.3-.58.2-.47.03-.93,0-1.39.15-.16.3-.31.45-.47Z"/>
      <path class="cls-2" d="M32.83,4.98c.11-.37.09-.7-.22-.97-.31-.27-.26-.63-.26-.99,0-.35.18-.49.52-.48.41.02.41.24.31.56-.18.56,0,1.09.16,1.62-.17.09-.35.18-.52.27Z"/>
      <path class="cls-2" d="M4.26,4.73c.18-.49.29-.98.21-1.5-.04-.26-.31-.64.27-.68.55-.04.47.35.53.71.12.67-.85,1.01-.5,1.72-.17-.08-.34-.16-.51-.25Z"/>
      <path class="cls-2" d="M18.82,12.17c1.36,0,2.71,0,4.07,0,1.29,0,2.16.78,2.16,2.09,0,1.26.22,2.53-.34,3.76-.22.48.11,1,.17,1.5.18,1.73.74,3.54-.64,5.09-.24.28-.47.51-.89.47-2.71-.27-5.43.26-8.15-.21-.68-.12-1.44.54-2.09-.24-.44-.53-.8-1.04-.73-1.8.11-1.33-.22-2.7.48-3.97.13-.23.08-.67-.06-.92-.69-1.28-.37-2.65-.36-3.98,0-.97.98-1.8,1.95-1.81,1.48,0,2.95,0,4.43,0h0Z"/>
      <path class="cls-2" d="M17.98,6.48c-.48.31.31,1.18-.53,1.26-.27.02-.76-.24-.73-.49.08-.59.71-.61,1.26-.76Z"/>
      <path class="cls-2" d="M20.97,7.22c-.26.37-.64.47-1.05.62-.23-.47,0-.95-.41-1.46.71.21,1.2.34,1.46.85Z"/>
      <path class="cls-2" d="M9.31,17.95c-.9-.19-1.63-.11-2.52-.02.3-.59.62-.99,1.22-1.01.61-.02,1.04.29,1.3,1.03Z"/>
      <path class="cls-2" d="M6.7,19.1c.73,0,1.31,0,1.9,0,.18,0,.41-.07.46.21.04.22-.1.36-.27.48-.9.62-1.51.28-2.09-.69Z"/>
      <path class="cls-2" d="M30.69,19.11c-.92,1.3-1.59,1.29-2.42,0h2.42Z"/>
      <path class="cls-2" d="M30.78,17.92c-.85-.1-1.65-.13-2.52,0,.95-1.37,1.61-1.36,2.52,0Z"/>
      <path class="cls-2" d="M19.55,30.56c.33-.46.16-.92.05-1.47.58.07,1.29.19,1.29.66,0,.6-.78.62-1.34.81Z"/>
      <path class="cls-2" d="M17.72,28.97c.13.63-.02,1.12.36,1.66-.7-.22-1.38-.32-1.44-.82-.07-.55.66-.47,1.08-.84Z"/>
      <path class="cls-2" d="M13.35,3.35c-.04.29-.31.38-.55.51-1.04.57-2.32.55-3.29,1.31-.23.18-.45-.06-.58-.26-.19-.3.07-.47.26-.54.94-.35,1.76-.88,2.52-1.54.4-.34,1.57.05,1.63.51Z"/>
      <path class="cls-2" d="M28.76,4.72c-.13.34-.34.68-.68.44-.9-.66-2.01-.71-2.97-1.16-.32-.15-1.04-.21-.74-.8.23-.45.96-.72,1.35-.45.9.65,1.8,1.28,2.83,1.71.09.04.14.17.21.26Z"/>
      <path class="cls-2" d="M9.42,31.75c.97.86,2.42.73,3.53,1.45.21.14.57.32.26.63-.37.38-.99.7-1.39.4-.89-.68-1.81-1.28-2.84-1.72-.19-.08-.3-.28-.12-.48.12-.14.23-.34.55-.27Z"/>
      <path class="cls-2" d="M25.57,34.42c-.57-.22-1.2-.14-1.33-.69-.12-.49.43-.59.77-.75.99-.47,2.16-.48,3.07-1.19.24-.19.43.06.6.22.14.14.12.33-.02.4-1.11.58-2.24,1.13-3.08,2Z"/>
      <path class="cls-1" d="M18.78,15.73c1.91,0,3.03,1.08,3.02,2.89-.02,1.98-1,2.81-3.1,2.9-2.24.1-3.13-1.31-3.04-2.96.11-2.28,1.17-3.01,3.13-2.83Z"/>
      <path class="cls-1" d="M22.42,15.37c-.38-.08-.63-.26-.55-.56.11-.45.5-.7.93-.79.33-.07.56.22.54.48-.04.57-.61.62-.92.87Z"/>
      <path class="cls-2" d="M20.39,18.61c0,1.14-.58,1.76-1.62,1.77-1.06,0-1.78-.78-1.76-1.94.01-.99.75-1.73,1.72-1.73,1,0,1.67.78,1.66,1.9Z"/>
    </g>
  </g>
</svg>