<?xml version="1.0" encoding="UTF-8"?>
<svg id="Layer_2" xmlns="http://www.w3.org/2000/svg" viewBox="0 0 37.23 37.11">
  <defs>
    <style>
      .cls-1 {
        fill: #0b0b0b;
      }

      .cls-2 {
        fill: #ebe9e9;
      }

      .cls-3 {
        fill: #f8f8f7;
      }

      .cls-4 {
        fill: #fff;
      }

      .cls-5 {
        fill: #ecebeb;
      }

      .cls-6 {
        fill: #0d0d0d;
      }

      .cls-7 {
        fill: #020202;
      }

      .cls-8 {
        fill: #f4f3f2;
      }

      .cls-9 {
        fill: #ebeaea;
      }

      .cls-10 {
        fill: #e2e1e0;
      }

      .cls-11 {
        fill: #f5f5f4;
      }

      .cls-12 {
        fill: #ebeae9;
      }

      .cls-13 {
        fill: #efeded;
      }

      .cls-14 {
        fill: #dcdbdb;
      }

      .cls-15 {
        fill: #0c0c0c;
      }

      .cls-16 {
        fill: #d1d0d0;
      }

      .cls-17 {
        fill: #161616;
      }
    </style>
  </defs>
  <g id="Layer_1-2" data-name="Layer_1">
    <g>
      <path class="cls-17" d="M35.25.04c.19.21.34.53.56.6,1.45.43,1.38,1.52,1.37,2.71-.02,5.18.02,10.36.04,15.54-.22,2.22-.07,4.45-.09,6.68-.03,3.11-.03,6.21.02,9.32,0,.53-.22.71-.57,1.01-1.22,1.08-2.61,1.2-4.16,1.19-9.7-.05-19.4-.06-29.11.01-1.39.01-2.06-1.04-3.13-1.46-.33-.13-.13-.5-.13-.76,0-10.91,0-21.82,0-32.73,0-.55.08-.89.64-1.09C1.22.88,1.68.56,1.97.04,7.88.03,13.78,0,19.69,0c5.19,0,10.37.02,15.56.04Z"/>
      <path class="cls-4" d="M18.5,36.13c-4.87,0-9.75,0-14.62,0-1.59,0-2.67-1.08-2.67-2.66,0-4.35,0-8.69,0-13.04,0-.36-.23-.92.31-1.02.91-.16,1.83-.14,2.54.65.4.44.15.8-.06,1.19-.17.32-.66.6-.26,1.03.37.4.71-.11,1.05-.12,1.28-.04,1.7-.71,2.04-1.89.3-1.06.63-2,.19-3.07-.13-.33-.16-.7-.27-1.04-.25-.78-2.05-1.78-2.78-1.52-.46.16-.44.48-.17.85.34.47.82.95.21,1.56-.68.68-1.53.6-2.36.53-.37-.03-.35-.37-.35-.66,0-4.7,0-9.41,0-14.11,0-.66,1.57-1.86,2.4-1.87,1.72-.02,3.43,0,5.15,0,8.11,0,16.22,0,24.33,0,1.66,0,2.75,1.09,2.75,2.73,0,4.27,0,8.53,0,12.8,0,.4.21,1.01-.38,1.11-.83.14-1.68.14-2.35-.55-.45-.47-.19-.87.05-1.29.17-.29.58-.55.26-.93-.36-.43-.7.03-1.06.07-.97.11-1.62.41-2.06,1.43-.77,1.81-.55,3.47.31,5.11.51.96,1.66.63,2.49.95.34.13.47-.42.18-.78-.42-.51-.84-1-.18-1.64.72-.7,1.61-.71,2.46-.5.44.11.25.7.25,1.07.01,4.19,0,8.37,0,12.56,0,2.16-.93,3.05-3.15,3.06-4.75,0-9.51,0-14.26,0,0,0,0,0,0,0Z"/>
      <path class="cls-14" d="M5.94,16.79c.13,1.46.28,2.58-.27,3.84-.17-1.03-.76-1.61-1.56-2.08.72-.38,1.21-.89,1.83-1.76Z"/>
      <path class="cls-10" d="M31.54,16.63c.07.99.8,1.38,1.47,1.9-.67.41-1.2.93-1.77,1.84-.11-1.42-.23-2.55.3-3.74Z"/>
      <path class="cls-7" d="M19.85,16.74c1.5,0,2.82-.06,4.13.02.94.06,1.59-.12,1.85-1.12.08-.29.13-.8.68-.57.62.25.11.63.02.86q-1.24,3.17-4.7,3.21c-.23,0-.46.02-.84.04,1.11,2.26,1.8,4.59,3.22,6.56.81,1.13,1.21,1.14,2.21.26.27-.24.46-.43.79-.11.34.33,0,.48-.18.66-.76.76-1.56,1.49-2.29,2.28-.55.6-1.2.16-1.76.2-3.05.23-6.12.36-9.18-.06-.53-.07-.94-.28-1.21-.91-.27-.66-.86-.37-1.28.05-.27.27-.36.96-.95.48-.46-.38.05-.7.2-1,1.24-2.38,2.04-2.67,4.46-1.62.85-2.02,1.68-4.05,2.58-6.05.29-.66.18-.83-.52-.8-.84.04-1.68.06-2.52,0-.99-.07-1.8.04-2.03,1.2-.06.28-.15.55-.56.34-.38-.19-.25-.45-.15-.69.37-.87.78-1.73,1.13-2.61.22-.55.63-.64,1.15-.63.94.02,1.89,0,2.97,0-.99-2.05-1.9-3.97-2.86-5.87-.47-.93-1.26-1.46-2.34-1.26-1,.18-1.47.88-1.54,1.85-.02.29-.01.58-.42.55-.45-.03-.3-.38-.3-.63-.05-3.14,2.59-4.97,5.35-3.67.35.17.68.17,1.04.17,2.04,0,4.13.28,6.09-.09,1.21-.23,1.82.19,2.65.71.64.4,1.29.23,1.78-.42.14-.19.24-.57.63-.31.31.21.19.45.11.73-.77,2.69-1.41,3.05-4.23,2.26-.47-.13-.6,0-.77.41-.76,1.81-1.56,3.6-2.41,5.56Z"/>
      <path class="cls-1" d="M27.95,7.38c.05-.39.26-.54.45-.65.78-.44,1.77-.82.04-1.35-.61-.19-.16-.96-.62-1.31-.69-.52-.06-.84.24-1.22.36-.46.31-1.17.94-1.47.18-.08.32-.24.59-.13-.04.37-.12.75-.1,1.13.03.51.34.85.81,1.08.53.26.74-.1.94-.43.55-.87,1.54-.4,2.25-.78.07.41.87.47.48,1.14-.45.77-1.08,1.42-1.1,2.45-.02.93-1.38,1.8-2.53,1.77-.79-.02-1.58-.15-2.4-.24Z"/>
      <path class="cls-1" d="M7.64,1.12c1.38.4,1.32,1.77,2.12,2.42-.7.49-.21,1.77-1.33,1.99-.22.04-.52.03-.53.36-.01.31.17.48.48.58.41.13.78.37.95.92-.93.08-1.82.25-2.71.22-1.23-.03-2.25-1.05-2.29-2.27-.03-.77-.79-1.12-.92-1.82-.04-.21-.59-.39-.15-.61.3-.15.17-.8.9-.55.59.21,1.31.08,1.8.63.28.31.46.76,1.04.46.52-.27.78-.67.77-1.23,0-.31-.07-.62-.14-1.09Z"/>
      <path class="cls-15" d="M29.54,35.93c-1.35-.4-1.28-1.77-2.08-2.42.64-.5.14-1.71,1.22-1.95.29-.06.63-.02.64-.52,0-.53-.41-.36-.64-.49-.31-.17-.62-.35-.81-.84,1.48-.04,2.94-.81,4.25.45.17.17.43.32.48.52.29,1.16.65,2.25,1.43,3.21.18.22-.56.42-.56.84-.73-.29-1.69.17-2.26-.67-.23-.33-.37-.81-.97-.54-.55.24-.78.66-.79,1.21,0,.35.05.71.1,1.21Z"/>
      <path class="cls-6" d="M9.28,29.65c-.22.62-.57.84-1.01.96-.2.05-.53-.12-.54.26,0,.27.02.61.4.62.98.02.7.99,1.09,1.38.78.77.05,1.01-.27,1.51-.78,1.23-.74,1.26-1.28,1.47-.17-.36.08-.69.07-1.04-.02-.62-.3-1.02-.85-1.32-.7-.38-.75.27-1.02.59-.65.76-1.82.74-2.56.14-.38-.31-.17-.33-.05-.58.38-.81,1.05-1.43,1.08-2.46.03-.98,1.52-1.85,2.68-1.7.71.1,1.41.15,2.24.16Z"/>
      <path class="cls-3" d="M15.93,8.88c1.99,0,3.75,0,5.51,0-1.85,1.57-3.6,1.62-5.51,0Z"/>
      <path class="cls-11" d="M21.31,28.04h-5.11c1.43-1.45,2.61-1.48,5.11,0Z"/>
      <path class="cls-2" d="M19.59,10.64c.83-.38,1.6-.74,2.48-1.14-.16.81-.34,1.64-.93,2.03-.25.17-1.08-.41-1.56-.89Z"/>
      <path class="cls-9" d="M22.43,27.67c-1.1-.5-1.91-.87-2.74-1.25q1.35-1.11,2.74,1.25Z"/>
      <path class="cls-12" d="M15.34,27.43c.62-2.21.68-2.24,2.23-1.01-.72.33-1.42.65-2.23,1.01Z"/>
      <path class="cls-13" d="M20.41,12.02c-.9,0-1.64,0-2.39,0-.23,0-.52.05-.57-.26-.05-.32.29-.34.47-.43.99-.5,1.66.16,2.49.69Z"/>
      <path class="cls-8" d="M17.08,25.09h3c-1.06,1.05-1.58,1.06-3,0Z"/>
      <path class="cls-5" d="M19.21,21.52h-1.36c.16-.58.3-1.14.77-1.59.18.55.6.97.6,1.59Z"/>
      <path class="cls-16" d="M20.41,13.2c-.18.5.02,1.51-1.13.82.42-.3.77-.56,1.13-.82Z"/>
    </g>
  </g>
</svg>