<?xml version="1.0" encoding="UTF-8"?>
<svg id="Layer_2" xmlns="http://www.w3.org/2000/svg" viewBox="0 0 37.67 37.45">
  <defs>
    <style>
      .cls-1 {
        fill: #bab8b8;
      }

      .cls-2 {
        fill: #f1f2f2;
      }

      .cls-3 {
        fill: #0e0e0e;
      }
    </style>
  </defs>
  <g id="Layer_1-2" data-name="Layer_1">
    <g>
      <path class="cls-2" d="M3.18,37.34c-.08-.02-.15-.04-.23-.08C.86,36.36-.11,35.02,0,32.5c.23-4.88,0-9.79,0-14.68,0-4.78.08-9.55.06-14.33,0-.99.28-1.68,1.14-2.16.66-.36,1.2-.92,1.95-1.12,1.47-.2,2.94-.07,4.41-.09,3.11-.02,6.22,0,9.33-.01.39,0,.8.11,1.17-.12h1.2c.41.23.86.12,1.29.12,4.5.01,9.01,0,13.51,0,2.39.5,3.62,1.85,3.6,4.1-.09,9.71-.08,19.42-.01,29.13.01,2.12-.85,3.57-3.59,4.08-5.33,0-10.66,0-15.99,0-4.53,0-9.07,0-13.6,0-.43,0-.88.09-1.3-.09Z"/>
      <path class="cls-3" d="M23.06,3.59c.36-.49.74-1.01.69-1.62-.09-.97.43-.97,1.15-.96,3.03.07,6.07.1,9.1.14,1.35.02,2.07.76,2.07,2.12,0,10.32,0,20.64,0,30.96,0,1.4-.63,2.15-2.02,2.18-3.2.07-6.39.08-9.59.1-.3,0-.72.08-.66-.43.12-1-.52-1.71-.9-2.53-.01-1.54.6-2.63,2.12-3.21.92-.35,1.13-1.39,1.64-2.13.77-2.02,2.26-3.41,3.95-4.66,1.12-.83.95-2.06.89-3.23-.3-.56-1.04-.88-.93-1.66h0c.16-.51.48-.91.93-1.21.4-1.96-.32-3.38-2.02-4.39-1.44-.85-2.09-2.31-2.77-3.74-.41-.95-.94-1.85-1.92-2.27-1.59-.69-1.84-1.97-1.71-3.47Z"/>
      <path class="cls-3" d="M5.77,20.07c-.52,1.24-.15,2.32.7,3.25.4.44.88.81,1.37,1.15,1.42.97,2.27,2.35,2.73,3.93.36,1.25,1.08,2.07,2.21,2.63,1.36.67,1.81,2.09,1.15,3.47-.07.14-.2.29-.19.43.07,1.7-1.03,1.59-2.24,1.55-2.67-.09-5.35-.07-8.03-.08-1.56,0-2.28-.72-2.28-2.3.02-10.28.04-20.56.06-30.84,0-1.28.68-2.08,1.97-2.11,3.19-.08,6.39-.08,9.59-.14.57-.01.78.15.75.74-.04.7.25,1.32.7,1.86.34,1.59-.13,2.77-1.68,3.45-1.02.44-1.41,1.43-1.95,2.29-.74,2.06-2.33,3.38-3.96,4.71-1.05.86-1.38,2.08-.83,3.42.35.44,1.04.67.91,1.42v-.02c-.22.48-.47.95-.98,1.2Z"/>
      <path class="cls-3" d="M28.5,18.78c-.33.28-.58.48-.81.7-.5.48-.77.84.14,1.29.97.48.74,3.28-.33,3.84-.74.39-1.46.8-2.43.77-4.39-.1-8.79-.05-13.19-.08-1.97-.01-3.54-2.09-3-3.93.06-.21.21-.5.4-.57,1.65-.67.42-1.19-.08-1.74-.08-.09-.17-.16-.34-.32.35-.32.72-.61,1.03-.95.31-.34.37-.6-.18-.9-1.12-.61-1.03-3.3.12-3.95.78-.44,1.57-.79,2.56-.77,4.32.07,8.63.02,12.95.03,1.99,0,3.53,1.9,3.13,3.85-.05.25-.23.6-.43.68-1.61.59-.52,1.14,0,1.69.11.11.24.2.45.36Z"/>
      <path class="cls-3" d="M15.19,3.84c-.62-.81-.53-1.76-.52-2.73,2.51-.13,5.07.19,7.63-.05.38-.04.36.12.36.49,0,.81-.14,1.56-.51,2.27-.38.78.27,1.46.21,2.2h0c.58.7,1.25,1.27,2.09,1.67.59.28.99.75,1.05,1.45.05.51.14,1.01.14,1.52,0,.4-.24.67-.7.61-.72-.09-.05-.44-.1-.67-.09-.42,0-.88-.4-1.19-.54-.4-1.22-.58-1.63-1.2-.15-.23-.67-.17-.98.11-.39.36-.03.55.17.76.75.77.16,1.36-.24,2-1.11-.76-1.26-1.74-.77-2.88.17-.41.31-.83.23-1.27-.06-.33-.03-.84-.56-.7-.34.09-.83.34-.67.83.4,1.21-.54,2.19-.51,3.35.01.33-.34.89-.87.82-.53-.07-.85-.57-.81-1.02.1-1.15-1.02-2.09-.46-3.32.12-.27-.36-.62-.72-.66-.44-.05-.44.37-.49.67-.1.49.07.94.26,1.38.24.56.33,1.13.13,1.74-.14.45-.45.78-.78,1.02-.23.16-.41-.25-.55-.47-.28-.46-.45-.95-.01-1.41.28-.3.77-.48.17-.98-.53-.44-.91-.23-1.2.18-.24.33-.49.58-.86.77-.6.3-.78.84-.78,1.49,0,.19.56.57-.14.64-.41.04-.63-.16-.66-.5-.06-.58-.22-1.17.12-1.72.21-.92.95-1.31,1.69-1.7,1.42-.75,1.51-2.13,1.68-3.48Z"/>
      <path class="cls-3" d="M22.14,33.74c.09.22.19.43.28.65.64,1.58.3,2.09-1.31,2.07-1.83-.03-3.66-.07-5.48-.02-.75.02-1.12-.12-.95-.93.07-.34-.04-.81.15-1.03.76-.9.54-1.8.24-2.77-.22-.73-.54-1.26-1.3-1.57-1.06-.44-1.91-1.16-2.11-2.4-.06-.4-.07-.78.11-1.16.17-.36.46-.28.71-.25.5.08.07.32.05.47-.1.7.06,1.29.7,1.64.4.22.69.48.94.86.26.39.64.55,1.11.16.5-.41.33-.6-.06-.99-.67-.68-.11-1.3.26-1.9,1.19.78,1.39,1.34.94,2.64-.16.45-.39.88-.3,1.38.06.33,0,.85.51.77.39-.06.85-.31.69-.91-.34-1.22.52-2.25.58-3.42.01-.24.28-.69.72-.69.49,0,.83.43.83.73,0,1.16.86,2.16.54,3.36-.16.58.32.84.71.9.48.08.47-.42.51-.76.06-.45-.09-.86-.26-1.27-.2-.48-.3-.98-.26-1.51.05-.6.47-.9.9-1.18.24-.16.33.12.42.27.31.49.56,1.03.09,1.53-.33.35-.67.55-.1.99.55.43.89.18,1.19-.24.6-.82,2.05-1.17,1.49-2.65-.08-.21.2-.16.32-.18.41-.06.62.21.62.56,0,.51-.09,1.02-.14,1.52-.06,1.06-.95,1.39-1.68,1.83-1.36.81-1.65,2.08-1.65,3.51Z"/>
      <path class="cls-2" d="M15.19,3.84c.44,1.16-.15,2.98-1.19,3.51-.84.43-1.62.91-2.18,1.68-.54-.46-.79.19-1.18.3.08-1.15.64-2.06,1.69-2.48,1.55-.61,1.9-1.82,1.94-3.26.4.18.01.9.59.9.4,0,.29-.39.34-.65Z"/>
      <path class="cls-2" d="M22.14,33.74c-.53-1.19.08-3.04,1.27-3.61.84-.41,1.55-.94,2.06-1.72.5.67.81-.02,1.19-.18,0,.94-.42,1.85-1.21,2.16-1.54.6-2.17,1.75-2.55,3.18-.1-.25-.02-.71-.47-.61-.37.08-.24.5-.29.78Z"/>
      <path class="cls-2" d="M25.49,9.13c-.48-.82-1.21-1.34-2.06-1.72-.62-.28-1.08-.66-1.08-1.4.57-.09.85-.36.64-.97-.16-.48-.3-.98.07-1.44.04,1.45.43,2.63,1.96,3.26,1.01.42,1.69,1.27,1.68,2.48-.36-.33-.7-.8-1.22-.2Z"/>
      <path class="cls-3" d="M7.72,19.94c-.12,1.31.11,2.59.51,3.89-.79-.2-1.12-.78-1.45-1.35-.14-.68-.33-1.37,0-2.03.17-.35.29-.97.94-.52Z"/>
      <path class="cls-3" d="M29.59,17.7c.04-1.34-.08-2.67-.53-4.01.78.26,1.16.8,1.48,1.39.15.61.25,1.21.03,1.83-.16.48-.39.87-.99.8Z"/>
      <path class="cls-3" d="M6.75,15.31c.21-.76.63-1.34,1.49-1.63-.29,1.2-.64,2.34-.48,3.54-.52.38-.69.36-.92-.18-.23-.56-.21-1.15-.09-1.73Z"/>
      <path class="cls-3" d="M30.59,22.25c-.24.75-.65,1.34-1.53,1.66.47-1.36.57-2.69.54-4.03.82-.07.94.54,1.04,1.12.07.41.09.85-.04,1.26Z"/>
      <path class="cls-2" d="M6.75,15.31c.03.65-.06,1.31.36,1.89.22.3.42.49.65.02.23.89-.88.98-1,1.65-.23-.52-.93-.74-.91-1.42.56-.04.71-.39.71-.9,0-.42-.14-.88.19-1.25Z"/>
      <path class="cls-2" d="M7.72,19.94c-1.39.45-.89,1.6-.94,2.54-.27-.53-.52-1.06-.35-1.68.16-.59-.25-.66-.66-.74.19-.52.43-.99.99-1.2.32.36.64.72.96,1.08Z"/>
      <path class="cls-2" d="M30.59,22.25c-.01-.93.05-1.88-1-2.38.33-.4.65-.8.98-1.2.23.6,1.03.88.93,1.66-.59-.27-.68.08-.72.55-.04.46.18.96-.2,1.37Z"/>
      <path class="cls-2" d="M29.59,17.7c1.19-.56,1-1.62.96-2.63.38.49.4,1.09.35,1.63-.06.55.15.7.6.76-.11.56-.46.93-.93,1.22-.16-.49-.7-.6-.97-.98Z"/>
      <path class="cls-3" d="M14.66,11.17c-.4.06-.83.3-1.05-.13-.08-.16.13-.69.26-.71.59-.09.54.5.79.84Z"/>
      <path class="cls-3" d="M14.65,26.36c-.2.38-.2.94-.72.92-.32-.01-.42-.57-.33-.76.2-.43.65-.18,1.06-.16Z"/>
      <path class="cls-3" d="M22.63,11.19c.28-.33.22-.94.79-.87.26.03.36.47.27.69-.21.48-.64.22-1.05.19Z"/>
      <path class="cls-3" d="M22.6,26.33c.49.05.91-.24,1.07.26.07.21,0,.57-.23.61-.56.12-.53-.43-.84-.87Z"/>
      <path class="cls-2" d="M22.35,6.02c-.12-.73-.94-1.39-.21-2.2-.08.75.44,1.44.21,2.2Z"/>
      <path class="cls-1" d="M10.12,11.97c.07-.48.35-.7.66-.88.02-.01.28.24.25.32-.13.42-.49.5-.92.56Z"/>
      <path class="cls-2" d="M29.79,8.01c.66-.83.75-1.61.97-2.26.22-.64.69-1.44.44-2.31-.33-1.13-.25-1.13,1.18-1.5.4-.1.77-.36,1.21-.58.12.69.23,1.28.78,1.79,1.22,1.14,1.18,2.28-.02,3.5-.43.44-.83.81-.72,1.5.1.66-.48.78-.89,1.13-.51-2.07-.69-2.16-2.95-1.28Z"/>
      <path class="cls-2" d="M32.76,28.33c.55.24,1.01.55.9,1.29-.06.44.15.73.45,1.03,1.11,1.14,1.18,2.49.1,3.61-.52.54-.55,1.17-.62,2.01-.76-.65-1.47-.84-2.27-.91-.62-.06-.68-.46-.22-.93.19-.19.02-.36.05-.54.13-.91-.37-1.66-.63-2.48-.18-.55-.34-1.11-.54-1.78.74.01,1.2.65,2.02.36,1.05-.37.13-1.27.76-1.67Z"/>
      <path class="cls-2" d="M3.65,36.47c.04-1.07-.2-1.59-.74-2.1-1.13-1.06-1.11-2.21-.04-3.34.47-.5.93-.91.83-1.71-.07-.55.45-.76.89-.96.55,1.98.85,2.13,2.71,1.22-.23.77-.55,1.44-.67,2.1-.14.78-.78,1.45-.51,2.3.05.16-.06.33.16.49.47.34.42.64-.15.89-.74.33-1.66.13-2.48,1.1Z"/>
      <path class="cls-2" d="M3.72,1.37c.65.22,1.08.64,1.72.69,1.05.08,1.08.3.71,1.19-.14.34-.12.81,0,1.17.34,1.15.76,2.27,1.18,3.49-.71.07-1.13-.7-1.99-.37-1.04.4-.12,1.28-.77,1.65-.37-.05-.86-.37-.82-.65.16-1.14-.72-1.66-1.23-2.42-.62-.93-.63-1.88.21-2.71.57-.55,1.07-1.11.98-2.04Z"/>
      <path class="cls-2" d="M16.12,18.58c0-.76-.03-1.52,0-2.27.04-.82.41-1.18,1.23-.72,1.28.73,2.58,1.42,3.82,2.2,1.23.77,1.19,1.18-.02,1.89-1.09.65-2.16,1.33-3.24,2.01-1.04.65-1.76.26-1.8-.97-.02-.72,0-1.43,0-2.15Z"/>
      <path class="cls-2" d="M19.59,2.86c.34-.75.87-1.03,1.53-1.17-.32.91-.37.94-1.53,1.17Z"/>
      <path class="cls-2" d="M17.78,2.94c-.92-.09-1.33-.53-1.89-1.29.99.16,1.5.5,1.89,1.29Z"/>
      <path class="cls-2" d="M19.49,34.61c.98.08,1.38.51,1.92,1.24-.99-.11-1.46-.47-1.92-1.24Z"/>
      <path class="cls-2" d="M17.76,34.48c-.35.99-.89,1.26-1.64,1.44.19-.85.81-1.04,1.64-1.44Z"/>
      <path class="cls-3" d="M32.46,4.75c.03.66.29,1.19-.12,1.59-.16.15-.51-.07-.64-.37-.3-.73.3-.82.76-1.22Z"/>
      <path class="cls-3" d="M33.75,4.38c.42.73.43,1.21,0,1.94v-1.94Z"/>
      <path class="cls-3" d="M32.43,32.63c-.43-.25-1.07-.33-.79-1.05.11-.29.41-.54.62-.44.68.35.1.96.17,1.49Z"/>
      <path class="cls-2" d="M33.89,32.98c-.03.16-.12.52-.26.26-.36-.64-.34-1.36,0-2.05.09.05.18.11.27.16-.04.54,0,1.09,0,1.63Z"/>
      <path class="cls-3" d="M33.89,32.98c-.4-.55-.4-1.09,0-1.63.26.55.29,1.09,0,1.63Z"/>
      <path class="cls-3" d="M4.8,32.86c.13-.68-.32-1.25.26-1.65.1-.07.44.05.56.31.3.66-.19.89-.82,1.33Z"/>
      <path class="cls-3" d="M3.66,31.14v2.15c-.58-.84-.61-1.37,0-2.15Z"/>
      <path class="cls-3" d="M4.78,4.8c.68.34,1.12.58.85,1.25-.11.27-.45.39-.57.31-.54-.37-.14-.91-.28-1.56Z"/>
      <path class="cls-3" d="M3.68,4.24v2.26c-.6-.83-.63-1.4,0-2.26Z"/>
      <path class="cls-3" d="M20.86,18.39c-1.23.74-2.27,1.37-3.43,2.07v-4.06c1.13.65,2.2,1.28,3.43,1.99Z"/>
    </g>
  </g>
</svg>