<?xml version="1.0" encoding="UTF-8"?>
<svg id="Layer_2" xmlns="http://www.w3.org/2000/svg" viewBox="0 0 128.64 42.48">
  <defs>
    <style>
      .cls-1 {
        fill: #fff;
      }
    </style>
  </defs>
  <g id="Layer_1-2" data-name="Layer_1">
    <g>
      <path d="M0,0h128.64v42.48H0V0ZM.89,41.51h126.8V.57c-3.85,0-7.49,0-11.12,0-18.59,0-37.18,0-55.77,0-9.8,0-19.59-.02-29.39,0-9.72.02-19.43.08-29.15.12-.61,0-1.28-.19-1.29.88-.06,6.91-.19,13.83-.24,20.74-.02,2.63.14,5.26.16,7.9.03,3.71,0,7.43,0,11.3Z"/>
      <path class="cls-1" d="M.89,41.51c0-3.88.02-7.59,0-11.3-.02-2.63-.18-5.27-.16-7.9.05-6.91.18-13.83.24-20.74,0-1.07.68-.87,1.29-.88,9.72-.05,19.43-.1,29.15-.12,9.8-.02,19.59,0,29.39,0,18.59,0,37.18,0,55.77,0,3.63,0,7.27,0,11.12,0v40.94H.89ZM68.01,2.77c-.14-.09-.27-.16-.4-.25-1.41-1-1.92-.84-2.51.79-.22.6-.43,1.2-.77,2.12-.26-.68-.41-.99-.51-1.32-.8-2.56-1-2.65-3.17-1.4-.75-1.96-1.25-2.2-2.04-1.36.43,1.31.82,2.45,1.28,3.85.67-.77,1.28-1.49,1.98-2.3.23.51.45.96.64,1.43.38.92.69,1.88,1.12,2.77.38.79,1,.8,1.39.02.41-.82.69-1.7,1.04-2.54.23-.55.48-1.09.72-1.64.76.84,1.38,1.52,2,2.21.47-1.39.84-2.51,1.27-3.78-.81-.85-1.32-.59-2.05,1.42ZM64.14,37.09c.1,0,.19-.02.29-.02.2.51.42,1.01.6,1.52.7,2.06,1.05,2.17,2.81.93.04-.03.14.02.22.03.54,1.8,1.22,2.14,1.95,1.38-.44-1.31-.82-2.45-1.29-3.82-.66.77-1.28,1.5-2.01,2.36-.59-1.48-1.11-2.84-1.7-4.18-.12-.27-.47-.62-.71-.61-.25,0-.6.34-.73.61-.39.83-.68,1.7-1.03,2.55-.21.51-.47,1.01-.69,1.49-.75-.82-1.37-1.5-1.98-2.17-.47,1.39-.86,2.5-1.29,3.75.81.77,1.42.44,2.05-1.5.14.1.26.2.38.29,1.33,1.01,1.88.85,2.43-.7.22-.64.47-1.26.71-1.89ZM126.27,8.64c-.52-2.13-.67-4.07.8-5.78.17-.2.03-.85-.18-1.12-.13-.17-.69-.11-1.02-.02-.72.19-1.41.63-2.13.68-1.42.11-2.86.03-4.28.03.26.2.62.54,1.04.76.45.23.96.33,1.44.49-.25,1.76.02,1.99,2.7,2.42.31.9.1,2.13,1.63,2.53ZM9.39,2.5c-.05-.14-.11-.28-.16-.42-2.13.91-4.19.6-6.24-.22-.39-.16-.9-.04-1.35-.05.05.47-.06,1.06.19,1.38,1.07,1.4,1.09,2.93.79,4.55-.05.27-.1.55-.15.82.1.05.2.11.31.16.3-.37.68-.71.88-1.13.23-.48.31-1.04.45-1.54,2.36-.1,2.91-.6,2.7-2.23.9-.45,1.75-.88,2.6-1.3ZM2.51,33.65c.08,1.04.34,2.05.17,2.99-.18.97-.81,1.86-1.15,2.82-.1.3,0,.84.21,1.03.19.17.69.06,1.03-.03.64-.18,1.26-.58,1.9-.62,1.5-.1,3.02-.03,4.85-.03-1.1-.52-2.02-.96-2.83-1.34-.05-.47.08-1.27-.19-1.45-.74-.48-1.65-.69-2.66-1.08-.16-.7.12-1.95-1.32-2.29ZM124.62,36.19c-2.59.22-2.99.58-2.64,2.22-.9.45-1.78.88-2.66,1.32.05.13.1.26.15.4,2.14-.97,4.19-.56,6.23.25.37.15.84.07,1.26.1-.04-.47,0-.96-.14-1.39-.24-.7-.77-1.33-.87-2.03-.15-1.1-.04-2.23-.04-3.37-1.26.28-.94,1.61-1.29,2.5ZM125.37,16.4c-.07,1.69-.53,3.05-1.91,4.02-.66.46-.41,1.02.13,1.58.59.6,1.09,1.33,1.49,2.07.26.48.27,1.1.44,1.9.41-.44.85-.69.88-.98.17-1.57-.62-2.79-1.67-3.84,2.04-2.07,2.33-3.87.65-4.75ZM3.3,25.74c-.09-1.71.51-2.95,1.77-3.94.26-.21.35-1.19.17-1.32-1.4-.99-1.87-2.39-1.98-4.38-.51.59-1.01.89-1.04,1.24-.14,1.51.56,2.74,1.64,3.74-2.02,2.3-2.28,3.99-.56,4.66ZM104.57,2.5c-.21-.23-.44-.66-.78-.84-1.85-.92-3.84-1.54-5.83-.7-1.98.84-3.95,1.17-6.06.91-.25-.03-.51.02-.76.03-.03.1-.06.21-.09.31.55.21,1.09.54,1.66.61,1.92.21,3.81.12,5.62-.71.59-.27,1.32-.45,1.95-.38,1.42.15,2.82.49,4.3.77ZM23.98,2.46c.09.12.17.24.26.36,2.38-1.46,4.73-1.3,7.29-.36,1.46.53,3.21.32,4.83.33.41,0,.82-.43,1.23-.66-.51-.25-.9-.23-1.29-.2-1.65.13-3.3.12-4.8-.68-2-1.07-3.96-.57-5.9.04-.61.19-1.09.78-1.63,1.18ZM24.02,39.75c.35.32.68.84,1.14,1,1.08.37,2.21.74,3.33.77,1.03.03,2.07-.42,3.12-.6,1.92-.32,3.85-.6,5.94-.92-.55-.21-1.05-.53-1.58-.58-1.96-.21-3.89-.11-5.73.76-.52.25-1.17.4-1.72.34-1.46-.17-2.9-.48-4.48-.76ZM104.56,39.77c-.08-.1-.15-.2-.23-.3-2.21,1.33-4.43,1.28-6.86.49-1.58-.51-3.35-.44-5.04-.52-.44-.02-.91.38-1.25.54,2.05.34,4.14.37,5.98,1.07,2.14.82,4.05.42,6.02-.19.52-.16.92-.72,1.38-1.1ZM44.38,2.91c1.64,0,3.17-.02,4.71,0,1.35.02,2.71.23,4.05.11,1.15-.1,2.37-.33,3.31-1.37-1.78.17-3.39.43-5,.46-1.75.03-3.5-.17-5.25-.23-.86-.03-1.52.31-1.82,1.03ZM72.25,1.76c.37.24.68.57,1.05.67,1.07.28,2.16.61,3.25.65,2.58.09,5.17.03,7.87.03-.49-.93-1.15-1.21-2.02-1.25-3.32-.12-6.66.84-9.95-.29-.02,0-.05.05-.2.19ZM44.24,39.2c.47.87,1.14,1.08,2,1.13,3.27.18,6.59-.92,9.82.34.02,0,.09-.1.18-.21-.09-.11-.17-.24-.29-.33-.19-.13-.41-.25-.62-.35-1.86-.8-3.81-.68-5.77-.61-1.72.07-3.45.01-5.33.01ZM84.33,39.59c-.06-.09-.11-.19-.17-.28-1.61,0-3.22,0-4.84,0-1.39,0-2.79-.19-4.16-.02-1.01.12-2.14.31-2.96,1.27,1.6-.18,3.03-.45,4.47-.47,1.94-.03,3.89.2,5.83.18.61,0,1.21-.44,1.81-.68Z"/>
      <path d="M68.01,2.77c.73-2.01,1.24-2.27,2.05-1.42-.43,1.27-.8,2.39-1.27,3.78-.62-.68-1.24-1.37-2-2.21-.24.55-.5,1.09-.72,1.64-.35.85-.63,1.73-1.04,2.54-.39.78-1.01.77-1.39-.02-.43-.89-.74-1.85-1.12-2.77-.19-.47-.41-.92-.64-1.43-.7.81-1.31,1.52-1.98,2.3-.46-1.4-.85-2.54-1.28-3.85.8-.84,1.29-.6,2.04,1.36,2.17-1.25,2.38-1.16,3.17,1.4.1.33.25.65.51,1.32.33-.92.55-1.52.77-2.12.59-1.64,1.1-1.8,2.51-.79.13.09.26.16.4.25Z"/>
      <path d="M64.14,37.09c-.24.63-.49,1.26-.71,1.89-.55,1.55-1.1,1.71-2.43.7-.12-.09-.25-.19-.38-.29-.63,1.94-1.24,2.27-2.05,1.5.43-1.25.81-2.37,1.29-3.75.61.67,1.23,1.34,1.98,2.17.23-.48.48-.97.69-1.49.35-.85.64-1.72,1.03-2.55.13-.27.48-.61.73-.61.24,0,.59.34.71.61.58,1.34,1.1,2.7,1.7,4.18.73-.86,1.35-1.59,2.01-2.36.46,1.38.85,2.52,1.29,3.82-.73.76-1.41.42-1.95-1.38-.07-.01-.17-.06-.22-.03-1.76,1.25-2.11,1.13-2.81-.93-.18-.51-.4-1.01-.6-1.52-.1,0-.19.02-.29.02Z"/>
      <path d="M126.27,8.64c-1.53-.4-1.31-1.64-1.63-2.53-2.68-.43-2.95-.67-2.7-2.42-.48-.16-.99-.26-1.44-.49-.42-.22-.78-.57-1.04-.76,1.42,0,2.86.08,4.28-.03.72-.06,1.41-.49,2.13-.68.33-.09.89-.15,1.02.02.21.27.35.92.18,1.12-1.47,1.71-1.32,3.64-.8,5.78Z"/>
      <path d="M9.39,2.5c-.85.43-1.7.85-2.6,1.3.21,1.63-.34,2.13-2.7,2.23-.14.5-.21,1.06-.45,1.54-.2.42-.58.76-.88,1.13-.1-.05-.2-.11-.31-.16.05-.27.1-.55.15-.82.3-1.61.28-3.14-.79-4.55-.24-.32-.13-.91-.19-1.38.45.01.96-.1,1.35.05,2.05.83,4.11,1.14,6.24.22.05.14.11.28.16.42Z"/>
      <path d="M2.51,33.65c1.44.34,1.17,1.59,1.32,2.29,1.01.38,1.92.6,2.66,1.08.27.18.14.98.19,1.45.81.38,1.73.82,2.83,1.34-1.83,0-3.35-.06-4.85.03-.64.04-1.26.45-1.9.62-.33.09-.83.2-1.03.03-.22-.19-.32-.73-.21-1.03.34-.96.97-1.84,1.15-2.82.17-.94-.09-1.95-.17-2.99Z"/>
      <path d="M124.62,36.19c.36-.9.04-2.22,1.29-2.5,0,1.14-.11,2.27.04,3.37.1.7.63,1.33.87,2.03.15.43.1.92.14,1.39-.42-.03-.88.05-1.26-.1-2.05-.8-4.1-1.22-6.23-.25-.05-.13-.1-.26-.15-.4.88-.43,1.75-.87,2.66-1.32-.35-1.64.05-2.01,2.64-2.22Z"/>
      <path d="M125.37,16.4c1.68.88,1.39,2.67-.65,4.75,1.05,1.05,1.84,2.28,1.67,3.84-.03.29-.47.54-.88.98-.17-.8-.18-1.42-.44-1.9-.4-.75-.9-1.47-1.49-2.07-.54-.56-.79-1.11-.13-1.58,1.38-.97,1.84-2.33,1.91-4.02Z"/>
      <path d="M3.3,25.74c-1.72-.67-1.47-2.36.56-4.66-1.08-1-1.78-2.23-1.64-3.74.03-.35.53-.65,1.04-1.24.12,1.99.59,3.39,1.98,4.38.18.13.09,1.12-.17,1.32-1.26.99-1.87,2.23-1.77,3.94Z"/>
      <path d="M104.57,2.5c-1.48-.28-2.88-.61-4.3-.77-.63-.07-1.36.11-1.95.38-1.81.83-3.7.92-5.62.71-.57-.06-1.11-.4-1.66-.61.03-.1.06-.21.09-.31.25-.01.51-.06.76-.03,2.11.26,4.08-.07,6.06-.91,1.99-.84,3.98-.22,5.83.7.35.17.57.6.78.84Z"/>
      <path d="M23.98,2.46c.54-.41,1.02-.99,1.63-1.18,1.94-.61,3.91-1.1,5.9-.04,1.5.8,3.15.81,4.8.68.39-.03.78-.05,1.29.2-.41.23-.82.66-1.23.66-1.62,0-3.37.21-4.83-.33-2.57-.94-4.92-1.1-7.29.36-.09-.12-.17-.24-.26-.36Z"/>
      <path d="M24.02,39.75c1.58.28,3.02.59,4.48.76.56.06,1.21-.09,1.72-.34,1.84-.87,3.77-.97,5.73-.76.53.06,1.03.37,1.58.58-2.09.32-4.02.59-5.94.92-1.05.18-2.08.63-3.12.6-1.12-.03-2.25-.4-3.33-.77-.46-.16-.79-.68-1.14-1Z"/>
      <path d="M104.56,39.77c-.46.38-.86.94-1.38,1.1-1.97.61-3.88,1.01-6.02.19-1.84-.7-3.94-.73-5.98-1.07.35-.16.81-.56,1.25-.54,1.69.08,3.47,0,5.04.52,2.43.79,4.65.83,6.86-.49.08.1.15.2.23.3Z"/>
      <path d="M44.38,2.91c.3-.72.96-1.06,1.82-1.03,1.75.07,3.5.26,5.25.23,1.61-.03,3.21-.29,5-.46-.94,1.04-2.16,1.27-3.31,1.37-1.33.12-2.7-.09-4.05-.11-1.54-.03-3.07,0-4.71,0Z"/>
      <path d="M72.25,1.76c.15-.14.19-.2.2-.19,3.29,1.14,6.63.17,9.95.29.87.03,1.53.32,2.02,1.25-2.7,0-5.29.06-7.87-.03-1.09-.04-2.18-.37-3.25-.65-.37-.1-.68-.43-1.05-.67Z"/>
      <path d="M44.24,39.2c1.87,0,3.6.05,5.33-.01,1.96-.08,3.91-.19,5.77.61.22.09.43.21.62.35.12.08.2.22.29.33-.09.1-.16.22-.18.21-3.23-1.26-6.55-.17-9.82-.34-.87-.05-1.54-.26-2-1.13Z"/>
      <path d="M84.33,39.59c-.6.24-1.21.67-1.81.68-1.94.02-3.89-.21-5.83-.18-1.44.02-2.88.29-4.47.47.81-.96,1.95-1.15,2.96-1.27,1.36-.17,2.77,0,4.16.02,1.61.01,3.22,0,4.84,0,.06.09.11.19.17.28Z"/>
    </g>
  </g>
</svg>