<?xml version="1.0" encoding="UTF-8"?>
<svg id="Layer_2" xmlns="http://www.w3.org/2000/svg" viewBox="0 0 46.37 44.41">
  <defs>
    <style>
      .cls-1 {
        fill: #f1f2f2;
      }
    </style>
  </defs>
  <g id="Layer_1-2" data-name="Layer_1">
    <path class="cls-1" d="M46.37,12.13c-.33-3.98-.65-7.96-.98-11.93-3-.07-6-.13-9-.2v5.09c-2.15.07-4.3.13-6.46.2-.46-1.63-.91-3.26-1.37-4.89-2.93.13-5.87.26-8.8.39-.13,1.63-.26,3.26-.39,4.89-2.28.13-4.57.26-6.85.39-.33-1.57-.65-3.13-.98-4.7-3.85.07-7.7.13-11.54.2.13,4.11.26,8.22.39,12.33,2.28.33,4.57.65,6.85.98-.39,9.85-.78,19.7-1.17,29.54,3.88-.17,7.75-.34,11.63-.5v-10.14h0s0-.01,0-.02c0-3.23,2.62-5.84,5.84-5.84s5.84,2.62,5.84,5.84c0,0,0,.01,0,.02h0v9.63c4.29-.19,8.59-.37,12.88-.56l-2.94-28.56,7.05-2.15Z"/>
  </g>
</svg>