<?xml version="1.0" encoding="UTF-8"?>
<svg id="Layer_2" xmlns="http://www.w3.org/2000/svg" viewBox="0 0 52.91 38.97">
  <defs>
    <style>
      .cls-1 {
        fill: #fff;
      }
    </style>
  </defs>
  <g id="Layer_1-2" data-name="Layer_1">
    <path class="cls-1" d="M19.33,26.09c1.02-.91,1.89-1.69,2.86-2.55-2.6-2.32-5.1-4.55-7.6-6.78-3.17-2.82-6.27-5.71-9.52-8.44C2.52,6.17,1.75,3.06,0,.04c.78.1,1.22.11,1.63.22,3.24.92,6.03,2.5,8.53,4.85,5.1,4.79,10.41,9.36,15.63,14.02.21.18.44.34.71.55,2.86-2.55,5.69-5.08,8.52-7.6,3.47-3.08,6.93-6.18,10.42-9.23,1.9-1.66,4.39-2,6.66-2.84.16-.06.38.05.8.11-1.58,2.74-2.29,5.77-4.74,7.9-5.3,4.63-10.53,9.35-15.78,14.04-.5.45-1,.9-1.61,1.45.93.86,1.8,1.66,2.77,2.57,1.39-1.49,1.97-3.16,1.67-5.11,2.36-.13,3.92,2.77,2.77,5.04-.65,1.27-1.43,2.47-2.16,3.72,2.28,2.13,4.64,4.28,6.92,6.51.51.49.87,1.21,1.09,1.89.18.56-.09.88-.87.84-1.18-.06-2.03-.63-2.85-1.35-2.26-1.97-4.5-3.95-6.83-5.99-2.11,1.55-4.27,3.24-6.77.72-2.54,1.59-3.66,1.56-6.03-.26-.59-.45-.92-.48-1.5.05-2.22,2.02-4.48,3.99-6.78,5.91-.51.43-1.26.67-1.94.78-1.05.18-1.53-.57-1.02-1.53.22-.41.58-.76.93-1.09,2.32-2.2,4.66-4.38,6.98-6.56-.7-1.22-1.5-2.45-2.15-3.76-1.13-2.3.16-4.72,2.63-5.1.1.93.07,1.9.34,2.78.26.84.83,1.59,1.33,2.51ZM31.22,28.59C22.42,20.64,13.69,12.73,4.95,4.83c-.11.09-.22.18-.33.27.72,1.01,1.28,2.19,2.17,2.99,7.82,7.07,15.7,14.07,23.61,21.14.22-.17.46-.36.83-.64ZM32.87,27.14c-.08-.11-.12-.23-.21-.3-2.89-2.56-5.79-5.12-8.68-7.69-5.41-4.81-10.8-9.64-16.22-14.44-.53-.47-1.23-.75-1.86-1.12-.05.09-.11.18-.16.26,3.55,3.22,7.09,6.45,10.66,9.66,3,2.7,6.04,5.35,9.03,8.06,2.04,1.84,4.03,3.73,6.03,5.61.5.47.95.75,1.41-.05ZM29.17,21.89c.04.17.07.34.11.5.38-.07.88,0,1.13-.23,5.42-4.79,10.83-9.59,16.18-14.46.75-.68,1.13-1.77,1.69-2.68-.1-.06-.2-.13-.3-.19-6.27,5.68-12.54,11.37-18.81,17.05ZM47.46,3.62c-1.61.37-17.67,14.23-19.88,16.95.47.89.87.27,1.26-.08,3.47-3.14,6.93-6.28,10.4-9.42,2.66-2.41,5.32-4.83,8.23-7.46ZM26.47,27.39c-1.01.86-1.94,1.65-2.87,2.45,1.85,1.5,4.51,1.49,5.77,0-.94-.79-1.87-1.58-2.89-2.44ZM20.18,26.98l.02.4c.35,0,.8.14,1.02-.02.89-.7,1.71-1.5,2.56-2.26-.04-.13-.08-.27-.12-.4-.33.03-.75-.06-.97.11-.87.68-1.68,1.45-2.51,2.19ZM21.89,28.52c.03.12.06.24.09.36.37-.03.85.08,1.08-.12.83-.67,1.57-1.44,2.66-2.47-.65-.05-1.11-.23-1.29-.08-.89.72-1.7,1.53-2.53,2.31Z"/>
  </g>
</svg>