<?xml version="1.0" encoding="UTF-8"?>
<svg id="Layer_2" xmlns="http://www.w3.org/2000/svg" viewBox="0 0 1037.21 49.92">
  <g id="Layer_1-2" data-name="Layer_1">
    <g>
      <path d="M1037.21,33.37c-120.12,0-240.23,0-360.35,0-212.75,0-425.51,0-638.26,0h-1.52l-.1-.44c.62-.18,1.24-.5,1.86-.51,6.2-.04,12.4-.02,18.6-.02,326.11,0,652.22,0,978.33,0,.48,0,.96,0,1.44,0v.96Z"/>
      <path d="M28.68.32c-.56.81-1.08,1.66-1.69,2.43-.6.74-1.5,1.37-.68,2.46.75,1,2.1,1.2,3.16.31,3.35-2.82,7.08-3.09,11.17-2.1,1.28.31,2.74-.06,4.11-.14.3-.02.59-.12.89-.19.08.1.17.21.25.31-.54.56-1,1.25-1.63,1.66-2.72,1.77-5.56,3.29-8.74,4.11-.6.15-1.18.41-1.82.64.96,1.14.96,1.85.06,3.5,1.56.44,1.77,1.87,2.22,3.1.43,1.2.83,2.42,1.08,3.67.1.48-.08,1.23-.42,1.55-1.9,1.8-2.05,4.72-.25,6.64.08.08.13.19.31.48-.5.29-.96.63-1.47.85-.66.28-1.37.42-2.03.7-.43.18-.95.4-1.19.76-1,1.48-1.96,2.99-2.82,4.56-.71,1.3-1.85,2.33-3.42,2.68-.12-3.2-1.85-5.8-3.22-8.52-.53-1.05-.37-1.88.39-2.72.8-.89,1.53-1.84,2.26-2.79.16-.2.22-.48.09-.89-1.18,1.06-2.35,2.13-3.53,3.19-.18-.07-.35-.14-.53-.21.09-1.96.1-3.93.31-5.88.15-1.47-.09-2.05-1.47-2.71-.73-.35-1.39-.86-2.35-1.47-2.55.62-5.55,3.93-5.79,6.74-.14,1.73.21,2.2,1.85,2.41-.23,1.13-1.93,2.21-3.4,2.17-2.46-.06-3.26-1.05-3.96-4.72-1.45-.41-2.82-.79-4.18-1.17,0-.19,0-.38,0-.57.43-.18.87-.52,1.29-.5,1.91.12,2.76-.57,2.95-2.51.09-.89.27-1.78.38-2.46-.69-1.99-1.41-3.87-1.96-5.8-.1-.36.42-.91.84-1.35.74,1.64,1.83,2.54,3.49,2.75.83.11,1.24-.22,1.25-1.02,0-.88-.08-1.76-.08-2.64,0-2.02,1.11-3.56,3.17-4.2-.12.46-.25.81-.3,1.17-.14,1.04.15,1.97,1.09,2.46,1,.51,1.63-.21,2.16-.98.27-.39.55-.79.81-1.19,1-1.53,2.31-2.4,4.23-2.53,1.49-.1,3-.49,4.43-.96.83-.27,1.53-.92,2.29-1.4.14.11.29.21.43.32ZM27.3,36.98c.24-.4.54-.93.88-1.43,1.2-1.76,2.31-3.6,3.69-5.2.56-.65.85-1.02.48-1.78-.16-.32-.2-.7-.35-1.02-.87-1.8-1.33-3.5-.01-5.4.75-1.08-.25-2.84-1.44-3.27-.39-.14-.92-.59-.93-.93-.05-1.16.09-2.32.16-3.49-6.09-.13-7.96,4.89-7.09,10.68.85-.95,1.48-1.77,2.24-2.44.33-.29,1.12-.51,1.38-.33.65.47.51,1.14-.04,1.75-.72.8-1.31,1.73-2.07,2.48-1,.97-.84,1.85-.27,2.99,1.19,2.37,2.22,4.82,3.38,7.38ZM25.8,10.05c.88,0,2.34.06,3.8-.02.95-.05,1.91-.2,2.82-.48,1.56-.47,3.07-1.09,4.62-1.61,2.45-.82,4.69-2.03,6.63-3.22-1.47-.16-3.09-.22-4.67-.54-3.47-.71-6.68-.49-9.36,2.14-1.4,1.37-2.81,2.73-3.83,3.73ZM22.6,17.81c1.16-1.98,2.7-3.43,4.98-3.83,1.49-.26,2.99-.5,4.5-.58,1.17-.06,1.09-.9,1.16-1.59.09-.84-.61-.8-1.16-.78-2.35.09-4.74-.02-7.04.37-1.59.27-3.17,1.07-4.54,1.96-1.62,1.05-1.31,2.73.43,3.49.54.23,1.02.59,1.67.97ZM7,11.82c.2,2.45.76,2.77,2.73,2.07,1.11-.39,2.31-.63,3.49-.73,1.83-.15,3.68-.04,5.51-.22.93-.09,1.81-.58,2.79-.92-2.08-3-6.71-3.64-9.21-1.5-1.51,1.29-3.06,2.41-5.31,1.3ZM15.97,16.24c-.03-.1-.06-.21-.1-.31-1.47.29-2.98.48-4.41.91-.83.25-1.83.73-2.26,1.41-1.15,1.8-1.72,3.84-1.34,6.04.25,1.45,2.11,2.81,3.78,2.12-.24-.39-.62-.76-.72-1.2-.52-2.19.07-4.13,1.59-5.74,1.08-1.15,2.31-2.16,3.47-3.23ZM26.34,2.31c-1.09.31-2.06.71-3.06.84-1.83.22-2.45,1.47-2.75,2.99-.57,2.8,1.21,4.41,3.85,3.49,1.33-.46,2.65-1.01,3.5-2.32-3.61-1.17-3.86-1.96-1.54-5ZM34.55,29.14c.1-.13.19-.26.29-.39-.07-.13-.15-.26-.22-.4-1.21-2.25-.79-5,.99-6.74.19-.19.39-.58.32-.79-.6-1.9-1.21-3.8-1.92-5.65-.43-1.12-1.62-1.01-2.37-.72-.54.21-1.01,1.17-1.1,1.85-.11.81.17,1.69,1.33,1.75.28.02.72.2.8.41.47,1.22,1.14,2.51.28,3.76-.86,1.26-.79,2.42-.2,3.71.38.83.61,1.73.99,2.56.13.28.52.44.8.65ZM5.03,21.44c1.25.4,1.87.23,2.13-.88.64-2.71,2.53-4.19,5.13-4.76,1.7-.37,3.46-.52,5.2-.67.8-.07,1.24-.31,1.24-.99-2.35,0-4.67-.11-6.97.05-1.1.08-2.21.6-3.23,1.09-.4.2-.82.87-.81,1.32.03,2.05-.72,3.63-2.68,4.83ZM11.7,9.72c1.31-.46,2.5-1.05,3.76-1.26,1.25-.21,2.57-.05,3.53-.05.5-1.69.98-3.36,1.46-5-.77-.08-1.44.36-2,1.15-.67.94-1.32,1.93-2.15,2.71-1.73,1.6-3.41,1.11-4.22-1.11-.05-.13-.13-.25-.19-.37-.07.01-.13.02-.2.03v3.9Z"/>
      <path d="M37.36,34.76c.7-.13,1.39-.36,2.09-.36,20.52-.02,41.03-.02,61.55-.02,19.8,0,39.59,0,59.39,0h1.38c.03.17.06.34.08.51-.66.15-1.31.42-1.97.42-11.84.03-23.67.02-35.51.02-28.47,0-56.95,0-85.42,0h-1.49l-.08-.58Z"/>
      <path d="M48.2,16.41c.61.37,1.59.73,1.57,1-.09.9-.53,1.77-.99,3.07.56,1.66.1,2.31-3.28,4.02.32.62.99,1.34.85,1.83-.18.65-.9,1.35-1.56,1.62-.89.37-1.94.49-2.92.46-.55-.01-1.08-.54-1.68-.87-.94.66-2.02,1.41-3.09,2.16-.09-.12-.18-.24-.27-.36.8-.65,1.6-1.3,2.21-1.8-.77-.63-1.52-1.21-2.25-1.83-.68-.57-1.11-1.42-.55-2.1.49-.6,1.39-.88,2.16-1.2.27-.11.67.1,1.15.19-.26-1.4-.22-2.62,1.13-3.41.2-.11.14-.73.13-1.12-.07-2.04.53-2.77,2.55-3.23.32-.07.68-.47.82-.8.46-1.13,1.29-1.82,2.41-2.16,1.33-.41,2.31.25,2.24,1.63-.05,1.04-.43,2.07-.62,2.9ZM42.83,24.34l.18.28c1.38-.57,2.79-1.07,4.1-1.76.34-.18.5-.94.51-1.43,0-.2-.63-.44-1-.6-.26-.11-.56-.12-.85-.17-.02-.13-.04-.26-.06-.39.63-.21,1.33-.31,1.88-.66.47-.3.75-.88,1.12-1.34-.42-.17-.83-.37-1.26-.51-.21-.07-.46-.05-.88-.08.32-.78.62-1.46.87-2.15.49-1.35.24-2.52-.56-2.75-.85-.24-1.44.35-1.81,1.9-.2.84-.39,1.65-1.08,1.79-.71-.25-1.15-.4-1.59-.55-.14.48-.38.95-.41,1.43-.03.59.12,1.19.17,1.79.11,1.24-.27,1.62-1.73,1.53.43,1.21.83,2.33,1.24,3.49,1.13-.74.99-2.41,2.72-2.86-.62,1.22-1.09,2.14-1.57,3.07ZM40.47,25.57c0-.21.01-.42.02-.63-.48-.11-.96-.23-1.45-.34-.09.43-.18.85-.27,1.28.57-.1,1.13-.21,1.7-.31ZM43.88,27.1c.09.11.17.22.26.33.37-.28.73-.56,1.1-.84-.35-.37-.71-.73-1.06-1.1-.1.08-.2.15-.29.23v1.37ZM42.32,25.73c-.15-.03-.31-.06-.46-.09-.12.27-.39.6-.32.81.12.37.45.67.7,1.01.14-.07.28-.13.42-.2-.11-.51-.22-1.02-.34-1.53ZM37.6,24.99c.52-.57.8-.87,1.2-1.31-.57-.17-.96-.29-1.6-.48.15.65.24,1.07.41,1.79Z"/>
      <path d="M17.7,32.46c.73-.66,1.7-1.53,2.68-2.4.11.1.23.2.34.29-.06.29-.11.58-.18.87-.54,2.07-.15,3.17,1.55,4.49,2.8,2.16,2.45,5.74-.78,7.18-3.17,1.41-6.27,1.61-8.93-1.17-.92-.96-2.06-1.1-3.43-.74.55-2.21,2.05-3.15,4.27-3.68-.67-.75-1.1-1.35-1.65-1.82-1.11-.97-1.85-2.12-1.88-3.61,0-.43.31-.97.64-1.27.16-.15.71.12,1.09.21.88.22,1.76.44,2.64.67,1.16.3,2.31.61,3.65.97ZM19.11,42.77c-.72-1.02-1.54-1.93-2.05-2.99-.42-.88.21-1.53,1.19-1.53.8,0,1.63-.18,2.38.01.73.18,1.37.73,2.05,1.12.09-.04.17-.09.26-.13-.47-.79-.78-1.76-1.44-2.33-1.44-1.24-2.74-2.46-2.55-4.65-.39.73-.8,1.52-.69,2.23.15,1.03-.37,1.24-1.07,1.5-1.41-3.42-2.34-3.98-6.44-3.69.79.93,1.46,1.68,2.08,2.47.51.65,1.08,1.29,1.38,2.04.48,1.19-.1,1.76-1.4,1.6-1.02-.12-1.87.16-2.41,1.4,1.67-.24,2.68.66,3.67,1.61,1.54,1.48,3.36,1.64,5.06,1.32ZM18.37,39.4c.56,1.63,1.75,2.43,3.16,2.19.11-1.89-1.04-2.72-3.16-2.19Z"/>
      <path d="M27,44.93c-.03-1.02-.53-1.53-1.49-1.45-.99.09-1.61.67-1.81,1.64-.42,1.97,1.5,3.97,3.6,3.77,3.16-.31,4.73-2.58,3.85-5.65-.2-.68-.51-1.35-.86-1.97-1.64-2.91-1.13-5.47,1.56-7.45,1.22-.9,2.58-1.53,4.13-1.51.05.11.1.22.15.34-.53.23-1.05.58-1.61.67-2.85.45-5.38,3.72-3.24,7.02.57.88,1.01,1.94,1.19,2.98.62,3.59-3.08,7.14-6.7,6.55-1.99-.33-3.44-2.06-3.3-3.94.13-1.68,2.02-3.37,3.81-3.4.82-.01,1.62.23,1.74,1.11.06.42-.44.91-.68,1.37-.12-.02-.23-.05-.35-.07Z"/>
      <path d="M33.63,36c.19,1.87,1.39,3.07,2.66,4.24,2.37,2.18,2.86,4.27,1.47,6.54-.69,1.12-1.7,1.82-3.05,1.95-.06-.2-.13-.3-.1-.34,1.47-2.71,1.03-5.1-1.09-7.3-.95-.99-1.33-2.3-1.16-3.66.07-.55.52-1.06.79-1.59.16.05.32.11.48.16ZM36.41,47.24c1.32-1.52,1.27-3.89,0-4.76v4.76Z"/>
      <path d="M41.07,44.58c0-.5.1-1.02-.02-1.49-.34-1.4-1.01-2.66-2.41-3.22-2.01-.81-3.5-2.12-4.57-4.28.47-.09.96-.35,1.33-.23,1.54.48,3.02,1.16,4.56,1.62,3.01.9,4.28,4.11,2.55,6.73-.28.42-.76.7-1.16,1.04-.1-.06-.2-.11-.29-.17ZM37.71,37.79c1.39.96,2.79,1.92,4.03,2.78-.19-1.73-1.78-2.93-4.03-2.78Z"/>
      <path d="M1.07,25.66c.27.35.53.7.81,1.03.81.96,1.85,1.37,3.09,1.16,1.58-.27,3.06-.06,4.56.53.79.31,1.7.28,2.56.41.04.12.08.25.12.37-.51.22-1.01.52-1.54.66-.99.26-2.02.4-3.02.64-3.36.8-5.82-.11-7.39-3.02-.52-.96-.21-1.47.82-1.77ZM3.76,28.7c.93,1.15,2.98,1.31,4.24.65,0-.12.02-.24.02-.35-1.42-.1-2.84-.2-4.26-.3Z"/>
      <path d="M50.89,23.89c.06.34.11.67.18,1.06,1.23-.74,2.4-1.45,3.57-2.16l.43.37c-.61,1.05-1.21,2.1-1.83,3.18h1.59c.04.11.08.21.12.32-.53.22-1.05.46-1.59.64-.98.32-1.97.61-2.95.9-2.94.85-5.87,1.73-8.82,2.53-.59.16-1.25.02-1.88.02-.04-.14-.09-.28-.13-.42.47-.18.95-.53,1.42-.52,2.08.06,4.04-.39,5.93-1.22,1.61-.71,2.66-1.82,2.9-3.65.05-.42.47-.8.71-1.19.12.05.23.1.35.16ZM53.39,24.47c-.07-.08-.14-.16-.21-.25-1.09.94-2.19,1.87-3.28,2.81.07.08.14.17.22.25,1.52-.41,2.51-1.26,3.28-2.81Z"/>
      <path d="M63.71,37.3c-.58.14-1.15.4-1.73.41-2.4.05-4.8-.05-7.2.07-1.07.05-2.12.53-3.19.75-.32.07-.7,0-1.03-.09-1.05-.31-2.06-.84-3.12-.96-1.53-.17-3.08-.04-4.63-.04-.04-.13-.08-.25-.13-.38.37-.2.73-.57,1.1-.57,1.88-.02,3.88-.34,5.6.21,1.81.58,3.39.29,5.13.18,3.01-.19,6.04-.05,9.07-.05.04.16.08.32.12.48Z"/>
      <path d="M10.7,35.75c-1.35,1.78-2.76,2.46-4.54,2.1-1.53-.31-2.42-1.38-2.7-2.86-.08-.44.12-1.07.43-1.4.14-.16.93.05,1.25.31,1.04.84,2.08,1.37,3.5,1.19.59-.07,1.26.38,2.07.66ZM5.56,35.92c.88,1.24,2.48,1.46,3.6.25-1.32-.09-2.47-.17-3.6-.25Z"/>
      <path d="M16.84,30.45c-1.88-3.19-.53-6.41,1.74-7.44,1.81,2.96,1.01,6.39-1.74,7.44ZM18.07,24.61c-1.22,1.34-1.24,2.92,0,4.32v-4.32Z"/>
    </g>
  </g>
</svg>