<?xml version="1.0" encoding="UTF-8"?>
<svg id="Layer_2" xmlns="http://www.w3.org/2000/svg" viewBox="0 0 1190.95 27.5">
  <defs>
    <style>
      .cls-1 {
        fill: #fff;
      }
    </style>
  </defs>
  <g id="Layer_1-2" data-name="Layer_1">
    <g>
      <path class="cls-1" d="M543.91,0c-.31.7-.62,1.39-1,2.24h33.69c.03.13.06.26.1.38-.47.19-.94.55-1.4.56-11.12.03-22.24.01-33.36,0-.19,0-.38-.05-.79-.11.46-.68.85-1.24,1.38-2.01-.61,0-1.03,0-1.45,0-148.74,0-297.48,0-446.23,0-31.04,0-62.07,0-93.11,0-.48,0-.95-.06-1.43-.1V0C181.51,0,362.71,0,543.91,0Z"/>
      <path class="cls-1" d="M1190.95.96c-.88.03-1.75.1-2.63.1-144.91,0-289.81,0-434.72,0-34.4,0-68.79,0-103.19,0-.47,0-.94,0-1.61,0,.48.74.85,1.3,1.34,2.05-.62.03-1.04.07-1.46.07-10.84,0-21.68.01-32.52-.01-.52,0-1.04-.31-1.57-.47.03-.14.05-.28.08-.42h33.6c-.26-.85-.48-1.57-.7-2.28C828.71,0,1009.83,0,1190.95,0v.96Z"/>
      <path class="cls-1" d="M588.61,6.44c-.49-1.06-.98-2.13-1.59-3.47,2.88.75,4.82,2.41,6.72,4.15,1.07-1.26,1.15-2.01.1-3.14-.99-1.06-2.1-2-3.24-3.07.8-1.2,2.16-.39,3.41-.41-.25.26-.49.52-.78.82.81.91,1.61,1.82,2.42,2.72.77-.85,1.58-1.76,2.56-2.86-.34-.17-.7-.34-1.05-.51l.21-.35c1.17.08,2.45-.49,3.4.59-1.09.99-2.18,1.89-3.15,2.9-1.15,1.19-1.13,1.84-.11,3.33,1.93-1.73,3.88-3.44,6.76-4.15-.61,1.33-1.1,2.4-1.59,3.47.07.07.13.14.2.21.47-.35.94-.72,1.42-1.05,1.18-.8,2.33-1.65,3.56-2.34.95-.53,1.87-.17,2.61.57,1.23,1.23,1.57,3.46.79,5.01-.95,1.91-3.42,3.31-5.41,3.12-1.05-.1-1.7-.6-1.9-1.66-.2-1.04-.09-1.92,1.14-2.38.88.92,1.94,1.23,3.16.53,1-.58,1.23-2.18.46-3.27-.71-1-1.64-1.11-2.66-.28-.87.7-1.68,1.48-2.59,2.12-.52.36-1.18.51-1.78.75-.11-.1-.21-.19-.32-.29.38-1,.77-2,1.15-3-2.2.41-3.86,2.2-4.06,4.34-.16,1.67-.34,3.33-.53,4.99-.13,1.18-1.02,1.79-1.94,2.26-.76.39-2.43-.93-2.6-2.12-.26-1.77-.48-3.56-.54-5.35-.04-1.31-.57-2.18-1.63-2.84-.77-.48-1.53-.99-2.48-1.34.41.99.81,1.99,1.22,2.98-.08.11-.15.21-.23.32-.52-.16-1.12-.22-1.55-.52-.98-.67-1.88-1.47-2.81-2.21-1.11-.89-1.77-.89-2.6-.02-.72.76-.85,2.44-.23,3.1.73.79,2.15.97,2.97.43.31-.21.9-.49,1.04-.37.38.33.78.84.83,1.31.21,1.86-1.2,2.96-3.22,2.47-1.72-.41-3.16-1.34-4.04-2.95-.88-1.6-.57-3.82.7-5.12.73-.75,1.65-1.13,2.6-.6,1.27.71,2.45,1.59,3.65,2.41.45.31.87.67,1.3,1,.08-.08.16-.16.24-.24ZM595.58,5.95c-1.76,2.61-1.9,2.96-1.43,6.16.19,1.29.06,2.79,1.48,3.6,1.39-.7,1.31-2.11,1.48-3.32.31-2.29.58-4.63-1.52-6.44ZM610.47,7.07c-1.27,1.96-2.97,2.9-5.22,2.75.45,1.1,1.27,1.44,2.55,1.14,1.72-.4,2.75-1.83,2.67-3.89ZM580.89,7.09c-.23,2.02,1.05,3.69,2.89,3.92,1.39.17,2-.16,2.16-1.21-2.17.12-3.83-.75-5.05-2.71Z"/>
      <path class="cls-1" d="M567.58,17.33c-.44-.2-.74-.61-.77-1.06-.03-.45.23-.78.29-.86-1.11.15-1.56-.08-1.76-.34-.19-.25-.13-.49-.22-1.34-.11-1-.22-.88-.24-1.47-.06-1.19.38-1.6.07-2.35-.15-.36-.26-.28-.51-.71-.2-.33-.38-.78-.32-3.28.02-.94.06-1.25.32-1.52.32-.32.78-.37,1.05-.37.01,1.26-.09,2.23-.19,2.91-.13.84-.32,1.7.09,2.22.07.09.26.29.34.61.06.24.04.45,0,.75-.13.77-.24.84-.29,1.26-.02.17,0,.2.15,1.39.12.96.13,1.05.24,1.15.25.22.72.1,1.66-.12.29-.07.49-.14.61-.32.17-.25.07-.57.15-.59.1-.03.17.51.54.73.34.21.71,0,1.35-.12.38-.07.93-.11,1.65.02,0-.02.12-.32.13-.34.06-.16.13-.35.22-.59-.04.05-.25.35-.65.4-.26.03-.46-.06-.54-.1.31-.2.91-.63,1.32-1.42.25-.47.35-.92.39-1.22-.84.04-1.27-.22-1.54-.43-.51-.39-.76-1.03-.92-1.79-.09-.42-.77-.74-1.24-1.03-.28-.17-.65-.19-1.02-.3,1.1-1.25,3.07-.94,3.41.58.3,1.34.95,1.91,2.23,2.18,1.33.28,2.18,1.29,2.29,2.63.22,2.83,2.77,3.66,5.01,3.18.34-.07.69-.1,1.07-.02-1.09,1.23-2.57,1.26-3.99,1.01-1.69-.29-2.88-1.25-3.17-3.13-.11-.71-.54-1.39-.89-2.05-.07-.14-.45-.11-.68-.16.04.2.06.4.13.59.25.65-.84,3.4-1.51,3.64-.15.05-.38-.02-.82-.09-.41-.06-.71-.14-.79-.16-.39-.1-1.08-.16-2.46-.01-.13.3-.27.74-.08.96.3.34,1.08-.18,1.99,0,.52.1,1.12.43,1.73,1.3-.3-.16-.85-.4-1.58-.43-.49-.02-.9.08-1.18.16-.33.41-.72,1.03-.65,1.75.03.34.16.56.23.72.6,1.33-.57,2.77-.41,3.71.13.78,1.25,1.73,5.91,2.36-.39-.18-.73-.34-1.12-.52.32-1.03.99-.78,1.71-.64.64.13,1.32.1,1.93.13-.07-.51-.29-.98-.14-1.22.36-.57.81-.29,1.31,0,1.64.94,3.02.42,3.69-1.32.85-2.2,2.09-3.14,4.52-3.11-.66.4-1.03.79-1.46.86-1.01.17-1.57.76-1.84,1.66-.67,2.25-2.07,3.25-4.5,3.31-1.19.03-2.46.8-3.53,1.48-2.2,1.4-5.4,1.36-6.79-.42-.83-1.06-.91-2.48-.91-2.6.02-1.61,1.13-2.48.65-3.79-.11-.3-.29-.61-.26-1.09.04-.55.33-.99.58-1.27Z"/>
      <path class="cls-1" d="M544.37.69c.54-.16,1.07-.45,1.61-.46,2.56-.05,5.12-.02,7.68-.02,11.51,0,23.03,0,34.54,0,.46,0,.91,0,1.37,0,.03.17.06.33.09.5-.62.16-1.23.45-1.85.45-11.63.03-23.27.02-34.9.02-2.8,0-5.59,0-8.39,0-.05-.16-.1-.32-.15-.48Z"/>
      <path class="cls-1" d="M646.98,1.17c-.61,0-1.01,0-1.4,0-13.99,0-27.98,0-41.97-.02-.66,0-1.31-.28-1.97-.44.03-.17.06-.34.09-.51.42,0,.83,0,1.25,0,13.99,0,27.98,0,41.97,0,.73,0,1.52-.13,2.04.97Z"/>
      <path class="cls-1" d="M580.05,2.86c-.76,1.04-1.55,1.92-2.11,2.92-.61,1.12-.63,2.35-.14,3.58.13.32.07.95-.15,1.11-.31.23-.92.34-1.27.19-2.32-.98-2.82-3.74-1.05-5.52,1.3-1.3,2.86-2.03,4.71-2.29ZM577.37,4.52c-2.01.82-2.6,2.71-1.3,3.99.43-1.32.87-2.68,1.3-3.99Z"/>
      <path class="cls-1" d="M590.64,11.26c.18.75.23,1.45.51,2.04,1.19,2.5.47,4.65-1.88,5.43-1.16.39-2.19.2-3.37-.84.61-.25,1.07-.61,1.51-.59,1.8.09,2.87-1.46,2.11-3.15-.69-1.54-.26-2.47,1.12-2.9Z"/>
      <path class="cls-1" d="M568.76,9.74c-.11.13-.28.28-.51.37-.34.13-.63.06-.64.1,0,.04.27.13,1.39.39-.24.13-.9.45-1.64.24-.14-.04-.85-.25-.88-.64-.03-.34.48-.63.95-.9.39-.22.98-.5,1.76-.66.22.06.44.11.66.17-.37.31-.73.62-1.1.93Z"/>
      <path class="cls-1" d="M647.04,0c.31.7.62,1.39,1,2.24-11.24,0-22.46,0-33.69,0-.03.13-.06.26-.1.38.47.19.94.55,1.4.56,11.12.03,22.24.01,33.36,0,.19,0,.38-.05.79-.11-.46-.68-.85-1.24-1.38-2.01.61,0,1.03,0,1.45,0,148.74,0,297.48,0,446.23,0,31.04,0,62.07,0,93.11,0,.48,0,.95-.06,1.43-.1V0c-181.2,0-362.4,0-543.6,0Z"/>
      <path class="cls-1" d="M0,.96c.88.03,1.75.1,2.63.1,144.91,0,289.81,0,434.72,0,34.4,0,68.79,0,103.19,0,.47,0,.94,0,1.61,0-.48.74-.85,1.3-1.34,2.05.62.03,1.04.07,1.46.07,10.84,0,21.68.01,32.52-.01.52,0,1.04-.31,1.57-.47-.03-.14-.05-.28-.08-.42-11.23,0-22.46,0-33.6,0,.26-.85.48-1.57.7-2.28C362.24,0,181.12,0,0,0v.96Z"/>
      <path class="cls-1" d="M602.59,6.68c.43-.34.85-.69,1.3-1,1.21-.82,2.38-1.7,3.65-2.41.95-.53,1.87-.15,2.6.6,1.27,1.3,1.57,3.52.7,5.12-.88,1.61-2.32,2.54-4.04,2.95-2.02.48-3.43-.62-3.22-2.47.05-.47.45-.98.83-1.31.14-.12.72.17,1.04.37.82.54,2.25.36,2.97-.43.62-.67.49-2.34-.23-3.1-.83-.87-1.49-.86-2.6.02-.93.75-1.83,1.54-2.81,2.21-.43.3-1.03.35-1.55.52-.08-.11-.15-.21-.23-.32.41-.99.81-1.99,1.22-2.98-.96.35-1.71.86-2.48,1.34-1.06.66-1.59,1.53-1.63,2.84-.06,1.79-.28,3.58-.54,5.35-.17,1.19-1.84,2.51-2.6,2.12-.93-.47-1.81-1.08-1.94-2.26-.19-1.66-.37-3.33-.53-4.99-.2-2.14-1.86-3.93-4.06-4.34.38,1,.77,2,1.15,3-.11.1-.21.19-.32.29-.6-.24-1.27-.39-1.78-.75-.91-.64-1.72-1.42-2.59-2.12-1.02-.83-1.95-.72-2.66.28-.78,1.09-.54,2.69.46,3.27,1.22.7,2.28.4,3.16-.53,1.23.46,1.34,1.34,1.14,2.38-.21,1.06-.85,1.56-1.9,1.66-1.98.19-4.45-1.21-5.41-3.12-.78-1.55-.43-3.77.79-5.01.74-.74,1.66-1.1,2.61-.57,1.24.69,2.38,1.54,3.56,2.34.49.33.95.7,1.42,1.05.07-.07.13-.14.2-.21-.49-1.07-.98-2.13-1.59-3.47,2.89.72,4.83,2.43,6.76,4.15,1.03-1.49,1.04-2.14-.11-3.33-.97-1.01-2.06-1.91-3.15-2.9.95-1.08,2.23-.51,3.4-.59l.21.35c-.35.17-.71.35-1.05.51.99,1.1,1.8,2.01,2.56,2.86.81-.91,1.61-1.82,2.42-2.72-.29-.3-.53-.56-.78-.82,1.25.02,2.61-.78,3.41.41-1.14,1.07-2.26,2.01-3.24,3.07-1.05,1.13-.97,1.88.1,3.14,1.89-1.75,3.84-3.4,6.72-4.15-.61,1.34-1.1,2.41-1.59,3.47.08.08.16.16.24.24ZM593.85,12.39c.16,1.21.09,2.62,1.48,3.32,1.42-.81,1.29-2.31,1.48-3.6.47-3.2.33-3.55-1.43-6.16-2.1,1.81-1.84,4.15-1.52,6.44ZM583.15,10.96c1.28.3,2.11-.04,2.55-1.14-2.25.15-3.96-.79-5.22-2.75-.08,2.06.95,3.49,2.67,3.89ZM605.02,9.81c.17,1.04.77,1.38,2.16,1.21,1.83-.23,3.12-1.9,2.89-3.92-1.22,1.96-2.88,2.83-5.05,2.71Z"/>
      <path class="cls-1" d="M623.38,17.33c.44-.2.74-.61.77-1.06.03-.45-.23-.78-.29-.86,1.11.15,1.56-.08,1.76-.34.19-.25.13-.49.22-1.34.11-1,.22-.88.24-1.47.06-1.19-.38-1.6-.07-2.35.15-.36.26-.28.51-.71.2-.33.38-.78.32-3.28-.02-.94-.06-1.25-.32-1.52-.32-.32-.78-.37-1.05-.37-.01,1.26.09,2.23.19,2.91.13.84.32,1.7-.09,2.22-.07.09-.26.29-.34.61-.06.24-.04.45,0,.75.13.77.24.84.29,1.26.02.17,0,.2-.15,1.39-.12.96-.13,1.05-.24,1.15-.25.22-.72.1-1.66-.12-.29-.07-.49-.14-.61-.32-.17-.25-.07-.57-.15-.59-.1-.03-.17.51-.54.73-.34.21-.71,0-1.35-.12-.38-.07-.93-.11-1.65.02,0-.02-.12-.32-.13-.34-.06-.16-.13-.35-.22-.59.04.05.25.35.65.4.26.03.46-.06.54-.1-.31-.2-.91-.63-1.32-1.42-.25-.47-.35-.92-.39-1.22.84.04,1.27-.22,1.54-.43.51-.39.76-1.03.92-1.79.09-.42.77-.74,1.24-1.03.28-.17.65-.19,1.02-.3-1.1-1.25-3.07-.94-3.41.58-.3,1.34-.95,1.91-2.23,2.18-1.33.28-2.18,1.29-2.29,2.63-.22,2.83-2.77,3.66-5.01,3.18-.34-.07-.69-.1-1.07-.02,1.09,1.23,2.57,1.26,3.99,1.01,1.69-.29,2.88-1.25,3.17-3.13.11-.71.54-1.39.89-2.05.07-.14.45-.11.68-.16-.04.2-.06.4-.13.59-.25.65.84,3.4,1.51,3.64.15.05.38-.02.82-.09.41-.06.71-.14.79-.16.39-.1,1.08-.16,2.46-.01.13.3.27.74.08.96-.3.34-1.08-.18-1.99,0-.52.1-1.12.43-1.73,1.3.3-.16.85-.4,1.58-.43.49-.02.9.08,1.18.16.33.41.72,1.03.65,1.75-.03.34-.16.56-.23.72-.6,1.33.57,2.77.41,3.71-.13.78-1.25,1.73-5.91,2.36.39-.18.73-.34,1.12-.52-.32-1.03-.99-.78-1.71-.64-.64.13-1.32.1-1.93.13.07-.51.29-.98.14-1.22-.36-.57-.81-.29-1.31,0-1.64.94-3.02.42-3.69-1.32-.85-2.2-2.09-3.14-4.52-3.11.66.4,1.03.79,1.46.86,1.01.17,1.57.76,1.84,1.66.67,2.25,2.07,3.25,4.5,3.31,1.19.03,2.46.8,3.53,1.48,2.2,1.4,5.4,1.36,6.79-.42.83-1.06.91-2.48.91-2.6-.02-1.61-1.13-2.48-.65-3.79.11-.3.29-.61.26-1.09-.04-.55-.33-.99-.58-1.27Z"/>
      <path class="cls-1" d="M646.58.69c-.54-.16-1.07-.45-1.61-.46-2.56-.05-5.12-.02-7.68-.02-11.51,0-23.03,0-34.54,0-.46,0-.91,0-1.37,0-.03.17-.06.33-.09.5.62.16,1.23.45,1.85.45,11.63.03,23.27.02,34.9.02,2.8,0,5.59,0,8.39,0,.05-.16.1-.32.15-.48Z"/>
      <path class="cls-1" d="M543.97,1.17c.61,0,1.01,0,1.4,0,13.99,0,27.98,0,41.97-.02.66,0,1.31-.28,1.97-.44-.03-.17-.06-.34-.09-.51-.42,0-.83,0-1.25,0-13.99,0-27.98,0-41.97,0-.73,0-1.52-.13-2.04.97Z"/>
      <path class="cls-1" d="M615.62,5.15c1.77,1.77,1.27,4.53-1.05,5.52-.35.15-.96.04-1.27-.19-.21-.16-.27-.79-.15-1.11.49-1.24.47-2.47-.14-3.58-.55-1.01-1.34-1.88-2.11-2.92,1.85.26,3.42.99,4.71,2.29ZM614.88,8.51c1.3-1.29.71-3.17-1.3-3.99.43,1.32.87,2.68,1.3,3.99Z"/>
      <path class="cls-1" d="M600.31,11.26c-.18.75-.23,1.45-.51,2.04-1.19,2.5-.47,4.65,1.88,5.43,1.16.39,2.19.2,3.37-.84-.61-.25-1.07-.61-1.51-.59-1.8.09-2.87-1.46-2.11-3.15.69-1.54.26-2.47-1.12-2.9Z"/>
      <path class="cls-1" d="M622.19,9.74c.11.13.28.28.51.37.34.13.63.06.64.1,0,.04-.27.13-1.39.39.24.13.9.45,1.64.24.14-.04.85-.25.88-.64.03-.34-.48-.63-.95-.9-.39-.22-.98-.5-1.76-.66-.22.06-.44.11-.66.17.37.31.73.62,1.1.93Z"/>
    </g>
  </g>
</svg>