<?xml version="1.0" encoding="UTF-8"?>
<svg id="Layer_2" xmlns="http://www.w3.org/2000/svg" viewBox="0 0 61.94 66.46">
  <defs>
    <style>
      .cls-1 {
        fill: #f1f2f2;
      }
    </style>
  </defs>
  <g id="Layer_1-2" data-name="Layer_1">
    <g>
      <path class="cls-1" d="M31.74,0c1.25.94,2.66,1.74,3.72,2.87,1.87,2,3.54,4.18,5.26,6.32,3.67,4.58,7.33,9.17,10.98,13.77,2.08,2.63,4.08,5.32,6.22,7.91.96,1.16,2.22,2.06,3.23,3.19.42.47.54,1.21.8,1.83-.65-.13-1.44-.08-1.94-.43-3.08-2.16-6.02-4.49-8.27-7.57-.11-.15-.27-.27-.41-.4-.09.05-.18.1-.26.15.23.44.38.95.69,1.32,1.9,2.27,3.84,4.5,5.74,6.77.47.56.82,1.22,1.21,1.81-.86.87-1.5.39-2.04-.04-1.22-.96-2.39-1.99-3.57-3-.33-.28-.65-.55-1.3-.76.13,2.04.24,4.08.38,6.12.3,4.38.61,8.76.92,13.14.13,1.87.29,3.74.41,5.61.04.59.08,1.22-.05,1.78-.08.32-.48.72-.81.81-2.54.65-5.09,1.33-7.67,1.78-1.68.29-3.42.29-5.13.27-4.6-.06-9,1.15-13.44,2.1-3.51.76-7.07,1.41-10.67,1-1.04-.12-2.08-.9-2.98-1.55-1.06-.77-2-1.71-2.92-2.65-.29-.3-.48-.83-.47-1.25.05-3.23.23-6.45.25-9.68.04-7.03.01-14.06.01-21.43-1.02,1-2.01,1.72-2.65,2.67-.72,1.07-1.4.91-2.16.28-1.57-1.28-3.09-2.62-4.8-4.07.47-.59.82-1.22,1.34-1.65,3.64-3.04,7.3-6.04,10.97-9.04,2.81-2.3,5.71-4.48,8.41-6.9,1.62-1.45,2.9-3.28,4.4-4.88.84-.89,1.83-1.64,2.71-2.49.69-.66,1.33-1.37,1.97-2.07C30.3,1.1,30.78.55,31.26,0c.16,0,.32,0,.48,0ZM36.63,42.49v-15.66H15.79c.11.73.31,1.45.32,2.18.02,10.15.01,20.3.01,30.45,0,.49,0,.98,0,1.56,2.42-.48,4.63-.88,6.82-1.36,1.81-.4,2.22-1.09,2.24-2.98.05-4.15-.27-8.31.57-12.44.31-1.54.41-1.73,1.98-1.73,2.95,0,5.9,0,8.9,0ZM32.15,10.17c-1.93,2.09-3.69,4.21-5.67,6.09-1.96,1.85-4.14,3.47-6.21,5.18h21.46c-3.3-3.88-6.42-7.55-9.59-11.27ZM43.25,56.9c1.01-.27,1.86-.57,2.74-.71.94-.15,1.1-.65,1.04-1.48-.32-4.8-.58-9.61-.92-14.41-.27-3.97-.58-7.93-.95-11.89-.15-1.65-.32-1.71-1.92-1.4v29.89ZM31.55,58.1c1.41-.09,2.5-.18,3.6-.21,1.36-.04,1.55-.21,1.56-1.6,0-1.14.01-2.29.01-3.43,0-1.68,0-3.35,0-5h-4.59c-.19,3.4-.39,6.75-.59,10.24ZM46.3,21.69c.08-.14.16-.27.25-.41-3.68-4.64-7.35-9.28-11.05-13.94-.46.38-.84.7-1.25,1.04,3.7,4.35,7.28,8.58,10.9,12.78.25.29.76.35,1.15.52Z"/>
      <path class="cls-1" d="M16.74,37.75c1.11-2.19,2.77-3.63,4.86-4.48.52-.21,1.46.05,1.97.42,1.41,1.02,2.75,2.16,4.02,3.36.94.89.81,1.43-.28,2.19-1.33.92-2.69,1.81-4.01,2.74-.82.58-1.47.12-2.05-.35-1.5-1.23-2.96-2.52-4.51-3.86Z"/>
    </g>
  </g>
</svg>